<mxfile host="app.diagrams.net" modified="2023-12-11T07:08:40.240Z" agent="Mozilla/5.0 (Windows NT 10.0; Win64; x64) AppleWebKit/537.36 (KHTML, like Gecko) Chrome/119.0.0.0 Safari/537.36" etag="iBoe6z4H6a-9TvtZpwNn" version="22.1.7" type="device">
  <diagram name="Page-1" id="HYe1LKIJQzY3ldaQz6WX">
    <mxGraphModel dx="3538" dy="-132" grid="1" gridSize="10" guides="1" tooltips="1" connect="1" arrows="1" fold="1" page="1" pageScale="1" pageWidth="850" pageHeight="1100" math="0" shadow="0">
      <root>
        <mxCell id="0" />
        <mxCell id="1" parent="0" />
        <mxCell id="C9hXWPLKWbTWLrYmM0g9-20" style="edgeStyle=orthogonalEdgeStyle;rounded=0;orthogonalLoop=1;jettySize=auto;html=1;exitX=0.25;exitY=0;exitDx=0;exitDy=0;entryX=1;entryY=0.5;entryDx=0;entryDy=0;endArrow=none;endFill=0;" edge="1" parent="1" source="C9hXWPLKWbTWLrYmM0g9-16" target="C9hXWPLKWbTWLrYmM0g9-14">
          <mxGeometry relative="1" as="geometry" />
        </mxCell>
        <mxCell id="C9hXWPLKWbTWLrYmM0g9-16" value="Vertex" style="rounded=0;whiteSpace=wrap;html=1;" vertex="1" parent="1">
          <mxGeometry x="-320" y="1470" width="120" height="60" as="geometry" />
        </mxCell>
        <mxCell id="C9hXWPLKWbTWLrYmM0g9-15" value="Vertex" style="rounded=0;whiteSpace=wrap;html=1;" vertex="1" parent="1">
          <mxGeometry x="-570" y="1449" width="120" height="60" as="geometry" />
        </mxCell>
        <mxCell id="C9hXWPLKWbTWLrYmM0g9-14" value="Vertex" style="rounded=0;whiteSpace=wrap;html=1;" vertex="1" parent="1">
          <mxGeometry x="-390" y="1315" width="120" height="60" as="geometry" />
        </mxCell>
        <mxCell id="C9hXWPLKWbTWLrYmM0g9-18" style="edgeStyle=orthogonalEdgeStyle;rounded=0;orthogonalLoop=1;jettySize=auto;html=1;exitX=1;exitY=0.5;exitDx=0;exitDy=0;entryX=0;entryY=0.5;entryDx=0;entryDy=0;endArrow=none;endFill=0;" edge="1" parent="1" source="C9hXWPLKWbTWLrYmM0g9-13" target="C9hXWPLKWbTWLrYmM0g9-14">
          <mxGeometry relative="1" as="geometry" />
        </mxCell>
        <mxCell id="C9hXWPLKWbTWLrYmM0g9-13" value="Vertex" style="rounded=0;whiteSpace=wrap;html=1;" vertex="1" parent="1">
          <mxGeometry x="-600" y="1295" width="120" height="60" as="geometry" />
        </mxCell>
        <mxCell id="cooOkbSMlnfYZ13W8bEg-2" value="key&lt;br&gt;value&lt;br&gt;next" style="rounded=0;whiteSpace=wrap;html=1;" parent="1" vertex="1">
          <mxGeometry x="20" y="1475" width="60" height="60" as="geometry" />
        </mxCell>
        <mxCell id="cooOkbSMlnfYZ13W8bEg-3" value="" style="endArrow=classic;html=1;rounded=0;entryX=0.5;entryY=0;entryDx=0;entryDy=0;" parent="1" target="cooOkbSMlnfYZ13W8bEg-2" edge="1">
          <mxGeometry width="50" height="50" relative="1" as="geometry">
            <mxPoint x="50" y="1445" as="sourcePoint" />
            <mxPoint x="100" y="1395" as="targetPoint" />
          </mxGeometry>
        </mxCell>
        <mxCell id="cooOkbSMlnfYZ13W8bEg-68" style="edgeStyle=orthogonalEdgeStyle;rounded=0;orthogonalLoop=1;jettySize=auto;html=1;exitX=0.5;exitY=1;exitDx=0;exitDy=0;" parent="1" source="cooOkbSMlnfYZ13W8bEg-5" edge="1">
          <mxGeometry relative="1" as="geometry">
            <mxPoint x="50" y="1665" as="targetPoint" />
          </mxGeometry>
        </mxCell>
        <mxCell id="cooOkbSMlnfYZ13W8bEg-5" value="key&lt;br&gt;value&lt;br&gt;next" style="rounded=0;whiteSpace=wrap;html=1;" parent="1" vertex="1">
          <mxGeometry x="20" y="1565" width="60" height="60" as="geometry" />
        </mxCell>
        <mxCell id="cooOkbSMlnfYZ13W8bEg-6" value="" style="endArrow=classic;html=1;rounded=0;entryX=0.5;entryY=0;entryDx=0;entryDy=0;" parent="1" target="cooOkbSMlnfYZ13W8bEg-5" edge="1">
          <mxGeometry width="50" height="50" relative="1" as="geometry">
            <mxPoint x="50" y="1535" as="sourcePoint" />
            <mxPoint x="100" y="1485" as="targetPoint" />
          </mxGeometry>
        </mxCell>
        <mxCell id="cooOkbSMlnfYZ13W8bEg-8" value="vertexLabel&lt;br&gt;vertex&lt;br&gt;next" style="rounded=0;whiteSpace=wrap;html=1;" parent="1" vertex="1">
          <mxGeometry x="90" y="1475" width="80" height="60" as="geometry" />
        </mxCell>
        <mxCell id="cooOkbSMlnfYZ13W8bEg-33" style="edgeStyle=orthogonalEdgeStyle;rounded=0;orthogonalLoop=1;jettySize=auto;html=1;exitX=1;exitY=0.25;exitDx=0;exitDy=0;entryX=0.012;entryY=0.074;entryDx=0;entryDy=0;entryPerimeter=0;" parent="1" source="cooOkbSMlnfYZ13W8bEg-17" target="cooOkbSMlnfYZ13W8bEg-18" edge="1">
          <mxGeometry relative="1" as="geometry">
            <Array as="points">
              <mxPoint x="500" y="1490" />
              <mxPoint x="500" y="1445" />
            </Array>
          </mxGeometry>
        </mxCell>
        <mxCell id="cooOkbSMlnfYZ13W8bEg-39" style="edgeStyle=orthogonalEdgeStyle;rounded=0;orthogonalLoop=1;jettySize=auto;html=1;exitX=1;exitY=0.5;exitDx=0;exitDy=0;entryX=0.003;entryY=0.096;entryDx=0;entryDy=0;entryPerimeter=0;" parent="1" source="cooOkbSMlnfYZ13W8bEg-17" target="cooOkbSMlnfYZ13W8bEg-35" edge="1">
          <mxGeometry relative="1" as="geometry" />
        </mxCell>
        <mxCell id="cooOkbSMlnfYZ13W8bEg-62" style="edgeStyle=orthogonalEdgeStyle;rounded=0;orthogonalLoop=1;jettySize=auto;html=1;exitX=0.5;exitY=1;exitDx=0;exitDy=0;" parent="1" source="cooOkbSMlnfYZ13W8bEg-17" target="cooOkbSMlnfYZ13W8bEg-47" edge="1">
          <mxGeometry relative="1" as="geometry" />
        </mxCell>
        <mxCell id="cooOkbSMlnfYZ13W8bEg-17" value="Profile(Timmy)&lt;br&gt;Vertex&amp;lt;Profile&amp;gt;&lt;br&gt;next" style="rounded=0;whiteSpace=wrap;html=1;" parent="1" vertex="1">
          <mxGeometry x="240" y="1475" width="100" height="60" as="geometry" />
        </mxCell>
        <mxCell id="cooOkbSMlnfYZ13W8bEg-18" value="Profile(Timmy)" style="swimlane;fontStyle=1;align=center;verticalAlign=top;childLayout=stackLayout;horizontal=1;startSize=26;horizontalStack=0;resizeParent=1;resizeParentMax=0;resizeLast=0;collapsible=1;marginBottom=0;whiteSpace=wrap;html=1;" parent="1" vertex="1">
          <mxGeometry x="550" y="1435" width="160" height="98" as="geometry" />
        </mxCell>
        <mxCell id="cooOkbSMlnfYZ13W8bEg-19" value="Timmy&lt;br&gt;timmy.png&lt;br&gt;Online&lt;br&gt;[Tammy, Tommy]" style="text;strokeColor=none;fillColor=none;align=left;verticalAlign=top;spacingLeft=4;spacingRight=4;overflow=hidden;rotatable=0;points=[[0,0.5],[1,0.5]];portConstraint=eastwest;whiteSpace=wrap;html=1;" parent="cooOkbSMlnfYZ13W8bEg-18" vertex="1">
          <mxGeometry y="26" width="160" height="64" as="geometry" />
        </mxCell>
        <mxCell id="cooOkbSMlnfYZ13W8bEg-20" value="" style="line;strokeWidth=1;fillColor=none;align=left;verticalAlign=middle;spacingTop=-1;spacingLeft=3;spacingRight=3;rotatable=0;labelPosition=right;points=[];portConstraint=eastwest;strokeColor=inherit;" parent="cooOkbSMlnfYZ13W8bEg-18" vertex="1">
          <mxGeometry y="90" width="160" height="8" as="geometry" />
        </mxCell>
        <mxCell id="cooOkbSMlnfYZ13W8bEg-23" value="Main&lt;br&gt;menu&lt;br&gt;logout" style="html=1;whiteSpace=wrap;align=center;verticalAlign=top;" parent="1" vertex="1">
          <mxGeometry x="-1020" y="1787.5" width="110" height="52.5" as="geometry" />
        </mxCell>
        <mxCell id="cooOkbSMlnfYZ13W8bEg-35" value="Vertex&amp;lt;Profile&amp;gt;" style="swimlane;fontStyle=1;align=center;verticalAlign=top;childLayout=stackLayout;horizontal=1;startSize=26;horizontalStack=0;resizeParent=1;resizeParentMax=0;resizeLast=0;collapsible=1;marginBottom=0;whiteSpace=wrap;html=1;" parent="1" vertex="1">
          <mxGeometry x="550" y="1545" width="160" height="138" as="geometry" />
        </mxCell>
        <mxCell id="cooOkbSMlnfYZ13W8bEg-36" value="visited: False&lt;br&gt;label: Profile(Timmy)&lt;br&gt;Edgelist: [Edge(Tammy, 1), Edge(Tommy, 0)]&lt;br&gt;previousVertex: null&lt;br&gt;cost: 0" style="text;strokeColor=none;fillColor=none;align=left;verticalAlign=top;spacingLeft=4;spacingRight=4;overflow=hidden;rotatable=0;points=[[0,0.5],[1,0.5]];portConstraint=eastwest;whiteSpace=wrap;html=1;" parent="cooOkbSMlnfYZ13W8bEg-35" vertex="1">
          <mxGeometry y="26" width="160" height="104" as="geometry" />
        </mxCell>
        <mxCell id="cooOkbSMlnfYZ13W8bEg-37" value="" style="line;strokeWidth=1;fillColor=none;align=left;verticalAlign=middle;spacingTop=-1;spacingLeft=3;spacingRight=3;rotatable=0;labelPosition=right;points=[];portConstraint=eastwest;strokeColor=inherit;" parent="cooOkbSMlnfYZ13W8bEg-35" vertex="1">
          <mxGeometry y="130" width="160" height="8" as="geometry" />
        </mxCell>
        <mxCell id="cooOkbSMlnfYZ13W8bEg-40" style="edgeStyle=orthogonalEdgeStyle;rounded=0;orthogonalLoop=1;jettySize=auto;html=1;exitX=1;exitY=0.5;exitDx=0;exitDy=0;entryX=0.994;entryY=0.15;entryDx=0;entryDy=0;entryPerimeter=0;" parent="1" source="cooOkbSMlnfYZ13W8bEg-36" target="cooOkbSMlnfYZ13W8bEg-18" edge="1">
          <mxGeometry relative="1" as="geometry">
            <Array as="points">
              <mxPoint x="710" y="1595" />
              <mxPoint x="730" y="1595" />
              <mxPoint x="730" y="1450" />
            </Array>
          </mxGeometry>
        </mxCell>
        <mxCell id="cooOkbSMlnfYZ13W8bEg-41" value="Profile" style="swimlane;fontStyle=1;align=center;verticalAlign=top;childLayout=stackLayout;horizontal=1;startSize=26;horizontalStack=0;resizeParent=1;resizeParentMax=0;resizeLast=0;collapsible=1;marginBottom=0;whiteSpace=wrap;html=1;" parent="1" vertex="1">
          <mxGeometry x="-550" y="1650" width="160" height="420" as="geometry" />
        </mxCell>
        <mxCell id="cooOkbSMlnfYZ13W8bEg-42" value="name: String&lt;br&gt;picture: String&lt;br&gt;status: ENUM(Online, Offline, etc)&lt;br&gt;friends: List&amp;lt;Profiles&amp;gt;&lt;br&gt;besties: List&amp;lt;Profiles&amp;gt;" style="text;strokeColor=none;fillColor=none;align=left;verticalAlign=top;spacingLeft=4;spacingRight=4;overflow=hidden;rotatable=0;points=[[0,0.5],[1,0.5]];portConstraint=eastwest;whiteSpace=wrap;html=1;" parent="cooOkbSMlnfYZ13W8bEg-41" vertex="1">
          <mxGeometry y="26" width="160" height="94" as="geometry" />
        </mxCell>
        <mxCell id="cooOkbSMlnfYZ13W8bEg-43" value="" style="line;strokeWidth=1;fillColor=none;align=left;verticalAlign=middle;spacingTop=-1;spacingLeft=3;spacingRight=3;rotatable=0;labelPosition=right;points=[];portConstraint=eastwest;strokeColor=inherit;" parent="cooOkbSMlnfYZ13W8bEg-41" vertex="1">
          <mxGeometry y="120" width="160" height="8" as="geometry" />
        </mxCell>
        <mxCell id="cooOkbSMlnfYZ13W8bEg-44" value="+ getPicture(): String&lt;br&gt;+ setPicture(file: String)&lt;br&gt;+ getName(): String&lt;br&gt;+ setName(name: String)&lt;br&gt;+ getStatus(): ENUM?&lt;br&gt;+ setStatus(ENUM?)&lt;br&gt;+ addFriend(friend: Profile, bestie: Boolean)&lt;br&gt;+ hasFriend(friend: Profile): Boolean&lt;br&gt;+ removeFriend(friend: Profile)&lt;br&gt;+ getAllFriends(): List&amp;lt;Profile&amp;gt;&lt;br&gt;+ getBestFriends(): List&amp;lt;Profile&amp;gt;&lt;br&gt;+ getFriends(): List&amp;lt;Profile&amp;gt;&lt;br&gt;+ displayProfile()&lt;br&gt;+ displayProfileDetails()" style="text;strokeColor=none;fillColor=none;align=left;verticalAlign=top;spacingLeft=4;spacingRight=4;overflow=hidden;rotatable=0;points=[[0,0.5],[1,0.5]];portConstraint=eastwest;whiteSpace=wrap;html=1;" parent="cooOkbSMlnfYZ13W8bEg-41" vertex="1">
          <mxGeometry y="128" width="160" height="292" as="geometry" />
        </mxCell>
        <mxCell id="cooOkbSMlnfYZ13W8bEg-46" style="edgeStyle=orthogonalEdgeStyle;rounded=0;orthogonalLoop=1;jettySize=auto;html=1;exitX=1;exitY=0.5;exitDx=0;exitDy=0;entryX=0.003;entryY=0.096;entryDx=0;entryDy=0;entryPerimeter=0;" parent="1" source="cooOkbSMlnfYZ13W8bEg-47" target="cooOkbSMlnfYZ13W8bEg-51" edge="1">
          <mxGeometry relative="1" as="geometry">
            <Array as="points">
              <mxPoint x="340" y="1655" />
              <mxPoint x="340" y="1740" />
              <mxPoint x="300" y="1740" />
              <mxPoint x="300" y="1808" />
            </Array>
          </mxGeometry>
        </mxCell>
        <mxCell id="cooOkbSMlnfYZ13W8bEg-55" style="edgeStyle=orthogonalEdgeStyle;rounded=0;orthogonalLoop=1;jettySize=auto;html=1;exitX=1;exitY=0.25;exitDx=0;exitDy=0;entryX=0.45;entryY=-0.031;entryDx=0;entryDy=0;entryPerimeter=0;" parent="1" edge="1">
          <mxGeometry relative="1" as="geometry">
            <mxPoint x="330" y="1644" as="sourcePoint" />
            <mxPoint x="417" y="1685.962" as="targetPoint" />
            <Array as="points">
              <mxPoint x="417" y="1644" />
            </Array>
          </mxGeometry>
        </mxCell>
        <mxCell id="cooOkbSMlnfYZ13W8bEg-63" style="edgeStyle=orthogonalEdgeStyle;rounded=0;orthogonalLoop=1;jettySize=auto;html=1;exitX=0.5;exitY=1;exitDx=0;exitDy=0;" parent="1" source="cooOkbSMlnfYZ13W8bEg-47" edge="1">
          <mxGeometry relative="1" as="geometry">
            <mxPoint x="250" y="1755" as="targetPoint" />
          </mxGeometry>
        </mxCell>
        <mxCell id="cooOkbSMlnfYZ13W8bEg-47" value="Profile(Tammy)&lt;br&gt;Vertex&amp;lt;Profile&amp;gt;&lt;br&gt;next" style="rounded=0;whiteSpace=wrap;html=1;" parent="1" vertex="1">
          <mxGeometry x="230" y="1625" width="100" height="60" as="geometry" />
        </mxCell>
        <mxCell id="cooOkbSMlnfYZ13W8bEg-60" style="edgeStyle=orthogonalEdgeStyle;rounded=0;orthogonalLoop=1;jettySize=auto;html=1;exitX=0.5;exitY=0;exitDx=0;exitDy=0;entryX=0;entryY=0.5;entryDx=0;entryDy=0;fillColor=#ffe6cc;strokeColor=#d79b00;" parent="1" source="cooOkbSMlnfYZ13W8bEg-48" target="cooOkbSMlnfYZ13W8bEg-19" edge="1">
          <mxGeometry relative="1" as="geometry" />
        </mxCell>
        <mxCell id="cooOkbSMlnfYZ13W8bEg-48" value="Profile(Tammy)" style="swimlane;fontStyle=1;align=center;verticalAlign=top;childLayout=stackLayout;horizontal=1;startSize=26;horizontalStack=0;resizeParent=1;resizeParentMax=0;resizeLast=0;collapsible=1;marginBottom=0;whiteSpace=wrap;html=1;" parent="1" vertex="1">
          <mxGeometry x="345" y="1685" width="160" height="98" as="geometry" />
        </mxCell>
        <mxCell id="cooOkbSMlnfYZ13W8bEg-49" value="Tammy&lt;br&gt;tammy.png&lt;br&gt;Online&lt;br&gt;[Timmy, Tommy]" style="text;strokeColor=none;fillColor=none;align=left;verticalAlign=top;spacingLeft=4;spacingRight=4;overflow=hidden;rotatable=0;points=[[0,0.5],[1,0.5]];portConstraint=eastwest;whiteSpace=wrap;html=1;" parent="cooOkbSMlnfYZ13W8bEg-48" vertex="1">
          <mxGeometry y="26" width="160" height="64" as="geometry" />
        </mxCell>
        <mxCell id="cooOkbSMlnfYZ13W8bEg-50" value="" style="line;strokeWidth=1;fillColor=none;align=left;verticalAlign=middle;spacingTop=-1;spacingLeft=3;spacingRight=3;rotatable=0;labelPosition=right;points=[];portConstraint=eastwest;strokeColor=inherit;" parent="cooOkbSMlnfYZ13W8bEg-48" vertex="1">
          <mxGeometry y="90" width="160" height="8" as="geometry" />
        </mxCell>
        <mxCell id="cooOkbSMlnfYZ13W8bEg-51" value="Vertex&amp;lt;Profile&amp;gt;" style="swimlane;fontStyle=1;align=center;verticalAlign=top;childLayout=stackLayout;horizontal=1;startSize=26;horizontalStack=0;resizeParent=1;resizeParentMax=0;resizeLast=0;collapsible=1;marginBottom=0;whiteSpace=wrap;html=1;" parent="1" vertex="1">
          <mxGeometry x="345" y="1795" width="160" height="138" as="geometry" />
        </mxCell>
        <mxCell id="cooOkbSMlnfYZ13W8bEg-52" value="visited: False&lt;br&gt;label: Profile(Tammy)&lt;br&gt;Edgelist: [Edge(Timmy, 1), Edge(Tommy, 0)]&lt;br&gt;previousVertex: null&lt;br&gt;cost: 0" style="text;strokeColor=none;fillColor=none;align=left;verticalAlign=top;spacingLeft=4;spacingRight=4;overflow=hidden;rotatable=0;points=[[0,0.5],[1,0.5]];portConstraint=eastwest;whiteSpace=wrap;html=1;" parent="cooOkbSMlnfYZ13W8bEg-51" vertex="1">
          <mxGeometry y="26" width="160" height="104" as="geometry" />
        </mxCell>
        <mxCell id="cooOkbSMlnfYZ13W8bEg-53" value="" style="line;strokeWidth=1;fillColor=none;align=left;verticalAlign=middle;spacingTop=-1;spacingLeft=3;spacingRight=3;rotatable=0;labelPosition=right;points=[];portConstraint=eastwest;strokeColor=inherit;" parent="cooOkbSMlnfYZ13W8bEg-51" vertex="1">
          <mxGeometry y="130" width="160" height="8" as="geometry" />
        </mxCell>
        <mxCell id="cooOkbSMlnfYZ13W8bEg-54" style="edgeStyle=orthogonalEdgeStyle;rounded=0;orthogonalLoop=1;jettySize=auto;html=1;exitX=1;exitY=0.5;exitDx=0;exitDy=0;entryX=0.994;entryY=0.15;entryDx=0;entryDy=0;entryPerimeter=0;" parent="1" source="cooOkbSMlnfYZ13W8bEg-52" target="cooOkbSMlnfYZ13W8bEg-48" edge="1">
          <mxGeometry relative="1" as="geometry">
            <Array as="points">
              <mxPoint x="505" y="1845" />
              <mxPoint x="525" y="1845" />
              <mxPoint x="525" y="1700" />
            </Array>
          </mxGeometry>
        </mxCell>
        <mxCell id="cooOkbSMlnfYZ13W8bEg-58" style="edgeStyle=orthogonalEdgeStyle;rounded=0;orthogonalLoop=1;jettySize=auto;html=1;exitX=0;exitY=0.5;exitDx=0;exitDy=0;entryX=1.013;entryY=0.328;entryDx=0;entryDy=0;entryPerimeter=0;fillColor=#ffe6cc;strokeColor=#d79b00;" parent="1" target="cooOkbSMlnfYZ13W8bEg-49" edge="1">
          <mxGeometry relative="1" as="geometry">
            <mxPoint x="620" y="1685" as="sourcePoint" />
            <mxPoint x="558.04" y="1747" as="targetPoint" />
          </mxGeometry>
        </mxCell>
        <mxCell id="cooOkbSMlnfYZ13W8bEg-59" style="edgeStyle=orthogonalEdgeStyle;rounded=0;orthogonalLoop=1;jettySize=auto;html=1;exitX=1;exitY=0.5;exitDx=0;exitDy=0;entryX=1.025;entryY=0.156;entryDx=0;entryDy=0;entryPerimeter=0;fillColor=#ffe6cc;strokeColor=#d79b00;" parent="1" source="cooOkbSMlnfYZ13W8bEg-52" target="cooOkbSMlnfYZ13W8bEg-19" edge="1">
          <mxGeometry relative="1" as="geometry">
            <Array as="points">
              <mxPoint x="505" y="1875" />
              <mxPoint x="760" y="1875" />
              <mxPoint x="760" y="1471" />
            </Array>
          </mxGeometry>
        </mxCell>
        <mxCell id="cooOkbSMlnfYZ13W8bEg-61" style="edgeStyle=orthogonalEdgeStyle;rounded=0;orthogonalLoop=1;jettySize=auto;html=1;exitX=0;exitY=0.5;exitDx=0;exitDy=0;fillColor=#ffe6cc;strokeColor=#d79b00;entryX=0.75;entryY=0;entryDx=0;entryDy=0;" parent="1" target="cooOkbSMlnfYZ13W8bEg-48" edge="1">
          <mxGeometry relative="1" as="geometry">
            <mxPoint x="550" y="1515" as="sourcePoint" />
            <mxPoint x="463" y="1615" as="targetPoint" />
          </mxGeometry>
        </mxCell>
        <mxCell id="cooOkbSMlnfYZ13W8bEg-65" value="Each key/value pair points to the profile (label) and the vertex which has the same profile as its label,&lt;br&gt;and to the next key value pair" style="text;html=1;align=center;verticalAlign=middle;resizable=0;points=[];autosize=1;strokeColor=none;fillColor=none;" parent="1" vertex="1">
          <mxGeometry x="245" y="1320" width="560" height="40" as="geometry" />
        </mxCell>
        <mxCell id="cooOkbSMlnfYZ13W8bEg-66" value="firstNode" style="text;html=1;align=center;verticalAlign=middle;resizable=0;points=[];autosize=1;strokeColor=none;fillColor=none;" parent="1" vertex="1">
          <mxGeometry x="20" y="1415" width="70" height="30" as="geometry" />
        </mxCell>
        <mxCell id="cooOkbSMlnfYZ13W8bEg-67" value="UnsortedLinkedDictionary" style="text;html=1;align=center;verticalAlign=middle;resizable=0;points=[];autosize=1;strokeColor=none;fillColor=none;" parent="1" vertex="1">
          <mxGeometry y="1385" width="160" height="30" as="geometry" />
        </mxCell>
        <mxCell id="cooOkbSMlnfYZ13W8bEg-70" value="" style="edgeStyle=orthogonalEdgeStyle;rounded=0;orthogonalLoop=1;jettySize=auto;html=1;" parent="1" source="cooOkbSMlnfYZ13W8bEg-69" target="cooOkbSMlnfYZ13W8bEg-17" edge="1">
          <mxGeometry relative="1" as="geometry" />
        </mxCell>
        <mxCell id="cooOkbSMlnfYZ13W8bEg-69" value="firstNode" style="text;html=1;align=center;verticalAlign=middle;resizable=0;points=[];autosize=1;strokeColor=none;fillColor=none;" parent="1" vertex="1">
          <mxGeometry x="255" y="1405" width="70" height="30" as="geometry" />
        </mxCell>
        <mxCell id="cooOkbSMlnfYZ13W8bEg-71" value="Profiles have a list of friends (Profiles)&lt;br&gt;Vertexes have a list of Edges(Profile, Weight)" style="text;html=1;align=center;verticalAlign=middle;resizable=0;points=[];autosize=1;strokeColor=none;fillColor=none;" parent="1" vertex="1">
          <mxGeometry x="520" y="1395" width="260" height="40" as="geometry" />
        </mxCell>
        <mxCell id="9jJaJCgMxhwfUNVwo0DU-75" value="" style="group;fillColor=default;labelBorderColor=default;labelBackgroundColor=none;strokeColor=default;" parent="1" vertex="1" connectable="0">
          <mxGeometry x="-190" y="2100" width="1660" height="1118" as="geometry" />
        </mxCell>
        <mxCell id="9jJaJCgMxhwfUNVwo0DU-1" value="ADTPackage" style="text;html=1;align=center;verticalAlign=middle;resizable=0;points=[];autosize=1;strokeColor=none;fillColor=none;fontSize=30;fontStyle=1" parent="9jJaJCgMxhwfUNVwo0DU-75" vertex="1">
          <mxGeometry x="510" y="50" width="210" height="50" as="geometry" />
        </mxCell>
        <mxCell id="9jJaJCgMxhwfUNVwo0DU-2" value="&lt;p style=&quot;margin:0px;margin-top:4px;text-align:center;&quot;&gt;&lt;i&gt;&amp;lt;&amp;lt;Interface&amp;gt;&amp;gt;&lt;/i&gt;&lt;br&gt;&lt;b&gt;DictionaryInterface&amp;lt;K, V&amp;gt;&lt;/b&gt;&lt;/p&gt;&lt;hr size=&quot;1&quot;&gt;&lt;p style=&quot;margin:0px;margin-left:4px;&quot;&gt;+ add(key: K, value: V): V&lt;/p&gt;&lt;p style=&quot;margin:0px;margin-left:4px;&quot;&gt;+ remove(key: K): V&lt;/p&gt;&lt;p style=&quot;margin:0px;margin-left:4px;&quot;&gt;+ getValue(key: K): V&lt;/p&gt;&lt;p style=&quot;margin:0px;margin-left:4px;&quot;&gt;+ contains(key: K): Boolean&lt;/p&gt;&lt;p style=&quot;margin:0px;margin-left:4px;&quot;&gt;+ getKeyIterator(): Iterator&amp;lt;K&amp;gt;&lt;/p&gt;&lt;p style=&quot;margin:0px;margin-left:4px;&quot;&gt;+ getValueIterator(): Iterator&amp;lt;V&amp;gt;&lt;/p&gt;&lt;p style=&quot;margin:0px;margin-left:4px;&quot;&gt;+ isEmpty(): Boolean&lt;/p&gt;&lt;p style=&quot;margin:0px;margin-left:4px;&quot;&gt;+ getSize(): Integer&lt;/p&gt;&lt;p style=&quot;margin:0px;margin-left:4px;&quot;&gt;+ clear()&lt;/p&gt;" style="verticalAlign=top;align=left;overflow=fill;fontSize=12;fontFamily=Helvetica;html=1;whiteSpace=wrap;" parent="9jJaJCgMxhwfUNVwo0DU-75" vertex="1">
          <mxGeometry x="680" y="172" width="190" height="180" as="geometry" />
        </mxCell>
        <mxCell id="9jJaJCgMxhwfUNVwo0DU-3" value="EmptyQueueException" style="swimlane;fontStyle=1;align=center;verticalAlign=top;childLayout=stackLayout;horizontal=1;startSize=26;horizontalStack=0;resizeParent=1;resizeParentMax=0;resizeLast=0;collapsible=1;marginBottom=0;whiteSpace=wrap;html=1;" parent="9jJaJCgMxhwfUNVwo0DU-75" vertex="1">
          <mxGeometry y="312" width="160" height="90" as="geometry" />
        </mxCell>
        <mxCell id="9jJaJCgMxhwfUNVwo0DU-5" value="" style="line;strokeWidth=1;fillColor=none;align=left;verticalAlign=middle;spacingTop=-1;spacingLeft=3;spacingRight=3;rotatable=0;labelPosition=right;points=[];portConstraint=eastwest;strokeColor=inherit;" parent="9jJaJCgMxhwfUNVwo0DU-3" vertex="1">
          <mxGeometry y="26" width="160" height="8" as="geometry" />
        </mxCell>
        <mxCell id="9jJaJCgMxhwfUNVwo0DU-6" value="+ EmptyQueueException()&lt;br&gt;+ EmptyQueueException&lt;br&gt;(message: String)" style="text;strokeColor=none;fillColor=none;align=left;verticalAlign=top;spacingLeft=4;spacingRight=4;overflow=hidden;rotatable=0;points=[[0,0.5],[1,0.5]];portConstraint=eastwest;whiteSpace=wrap;html=1;" parent="9jJaJCgMxhwfUNVwo0DU-3" vertex="1">
          <mxGeometry y="34" width="160" height="56" as="geometry" />
        </mxCell>
        <mxCell id="9jJaJCgMxhwfUNVwo0DU-7" value="HeapPriorityQueue&amp;lt;T extends Comparable&amp;lt;? super T&amp;gt;&amp;gt;" style="swimlane;fontStyle=1;align=center;verticalAlign=top;childLayout=stackLayout;horizontal=1;startSize=40;horizontalStack=0;resizeParent=1;resizeParentMax=0;resizeLast=0;collapsible=1;marginBottom=0;whiteSpace=wrap;html=1;" parent="9jJaJCgMxhwfUNVwo0DU-75" vertex="1">
          <mxGeometry x="883" y="502" width="190" height="100" as="geometry" />
        </mxCell>
        <mxCell id="9jJaJCgMxhwfUNVwo0DU-8" value="- pq: MaxHeapInterface&amp;lt;T&amp;gt;" style="text;strokeColor=none;fillColor=none;align=left;verticalAlign=top;spacingLeft=4;spacingRight=4;overflow=hidden;rotatable=0;points=[[0,0.5],[1,0.5]];portConstraint=eastwest;whiteSpace=wrap;html=1;" parent="9jJaJCgMxhwfUNVwo0DU-7" vertex="1">
          <mxGeometry y="40" width="190" height="26" as="geometry" />
        </mxCell>
        <mxCell id="9jJaJCgMxhwfUNVwo0DU-9" value="" style="line;strokeWidth=1;fillColor=none;align=left;verticalAlign=middle;spacingTop=-1;spacingLeft=3;spacingRight=3;rotatable=0;labelPosition=right;points=[];portConstraint=eastwest;strokeColor=inherit;" parent="9jJaJCgMxhwfUNVwo0DU-7" vertex="1">
          <mxGeometry y="66" width="190" height="8" as="geometry" />
        </mxCell>
        <mxCell id="9jJaJCgMxhwfUNVwo0DU-10" value="+ HeapPriorityQueue()" style="text;strokeColor=none;fillColor=none;align=left;verticalAlign=top;spacingLeft=4;spacingRight=4;overflow=hidden;rotatable=0;points=[[0,0.5],[1,0.5]];portConstraint=eastwest;whiteSpace=wrap;html=1;" parent="9jJaJCgMxhwfUNVwo0DU-7" vertex="1">
          <mxGeometry y="74" width="190" height="26" as="geometry" />
        </mxCell>
        <mxCell id="9jJaJCgMxhwfUNVwo0DU-11" value="&lt;p style=&quot;margin:0px;margin-top:4px;text-align:center;&quot;&gt;&lt;i&gt;&amp;lt;&amp;lt;Interface&amp;gt;&amp;gt;&lt;/i&gt;&lt;br&gt;&lt;b&gt;PriorityQueueInterface&amp;lt;T&amp;gt;&lt;/b&gt;&lt;/p&gt;&lt;hr size=&quot;1&quot;&gt;&lt;p style=&quot;margin:0px;margin-left:4px;&quot;&gt;+ add(newEntry: T)&lt;/p&gt;&lt;p style=&quot;margin:0px;margin-left:4px;&quot;&gt;+ remove(): T&lt;/p&gt;&lt;p style=&quot;margin:0px;margin-left:4px;&quot;&gt;+ peek(): T&lt;/p&gt;&lt;p style=&quot;margin:0px;margin-left:4px;&quot;&gt;+ isEmpty(): Boolean&lt;/p&gt;&lt;p style=&quot;margin:0px;margin-left:4px;&quot;&gt;+ getSize(): Integer&lt;/p&gt;&lt;p style=&quot;margin:0px;margin-left:4px;&quot;&gt;+ clear()&lt;/p&gt;" style="verticalAlign=top;align=left;overflow=fill;fontSize=12;fontFamily=Helvetica;html=1;whiteSpace=wrap;" parent="9jJaJCgMxhwfUNVwo0DU-75" vertex="1">
          <mxGeometry x="890" y="172" width="190" height="140" as="geometry" />
        </mxCell>
        <mxCell id="9jJaJCgMxhwfUNVwo0DU-12" style="edgeStyle=orthogonalEdgeStyle;rounded=0;orthogonalLoop=1;jettySize=auto;html=1;exitX=0.5;exitY=0;exitDx=0;exitDy=0;entryX=0.468;entryY=1.006;entryDx=0;entryDy=0;entryPerimeter=0;dashed=1;endArrow=block;endFill=0;" parent="9jJaJCgMxhwfUNVwo0DU-75" source="9jJaJCgMxhwfUNVwo0DU-7" target="9jJaJCgMxhwfUNVwo0DU-11" edge="1">
          <mxGeometry relative="1" as="geometry" />
        </mxCell>
        <mxCell id="9jJaJCgMxhwfUNVwo0DU-13" value="&lt;p style=&quot;margin:0px;margin-top:4px;text-align:center;&quot;&gt;&lt;i&gt;&amp;lt;&amp;lt;Interface&amp;gt;&amp;gt;&lt;/i&gt;&lt;br&gt;&lt;b&gt;ListWithIteratorInterface&amp;lt;T&amp;gt;&lt;/b&gt;&lt;/p&gt;&lt;hr size=&quot;1&quot;&gt;&lt;p style=&quot;margin:0px;margin-left:4px;&quot;&gt;+ getIterator(): Iterator&amp;lt;T&amp;gt;&lt;/p&gt;" style="verticalAlign=top;align=left;overflow=fill;fontSize=12;fontFamily=Helvetica;html=1;whiteSpace=wrap;" parent="9jJaJCgMxhwfUNVwo0DU-75" vertex="1">
          <mxGeometry x="1140" y="352" width="190" height="70" as="geometry" />
        </mxCell>
        <mxCell id="9jJaJCgMxhwfUNVwo0DU-18" style="edgeStyle=orthogonalEdgeStyle;rounded=0;orthogonalLoop=1;jettySize=auto;html=1;exitX=0.5;exitY=0;exitDx=0;exitDy=0;entryX=0.458;entryY=0.994;entryDx=0;entryDy=0;entryPerimeter=0;dashed=1;endArrow=block;endFill=0;" parent="9jJaJCgMxhwfUNVwo0DU-75" source="9jJaJCgMxhwfUNVwo0DU-14" target="9jJaJCgMxhwfUNVwo0DU-13" edge="1">
          <mxGeometry relative="1" as="geometry" />
        </mxCell>
        <mxCell id="9jJaJCgMxhwfUNVwo0DU-14" value="LinkedListWithIterator&amp;lt;T&amp;gt;" style="swimlane;fontStyle=1;align=center;verticalAlign=top;childLayout=stackLayout;horizontal=1;startSize=30;horizontalStack=0;resizeParent=1;resizeParentMax=0;resizeLast=0;collapsible=1;marginBottom=0;whiteSpace=wrap;html=1;" parent="9jJaJCgMxhwfUNVwo0DU-75" vertex="1">
          <mxGeometry x="1090" y="502" width="190" height="160" as="geometry" />
        </mxCell>
        <mxCell id="9jJaJCgMxhwfUNVwo0DU-15" value="- firstNode: Node&lt;br&gt;- numberOfEntries: Integer" style="text;strokeColor=none;fillColor=none;align=left;verticalAlign=top;spacingLeft=4;spacingRight=4;overflow=hidden;rotatable=0;points=[[0,0.5],[1,0.5]];portConstraint=eastwest;whiteSpace=wrap;html=1;" parent="9jJaJCgMxhwfUNVwo0DU-14" vertex="1">
          <mxGeometry y="30" width="190" height="40" as="geometry" />
        </mxCell>
        <mxCell id="9jJaJCgMxhwfUNVwo0DU-16" value="" style="line;strokeWidth=1;fillColor=none;align=left;verticalAlign=middle;spacingTop=-1;spacingLeft=3;spacingRight=3;rotatable=0;labelPosition=right;points=[];portConstraint=eastwest;strokeColor=inherit;" parent="9jJaJCgMxhwfUNVwo0DU-14" vertex="1">
          <mxGeometry y="70" width="190" height="8" as="geometry" />
        </mxCell>
        <mxCell id="9jJaJCgMxhwfUNVwo0DU-17" value="+ LinkedListWithIterator()&lt;br&gt;+ iterator(): Iterator&amp;lt;T&amp;gt;&lt;br&gt;- initializeDataFields()&lt;br&gt;- getNodeAt(givenPosition: Integer): Node" style="text;strokeColor=none;fillColor=none;align=left;verticalAlign=top;spacingLeft=4;spacingRight=4;overflow=hidden;rotatable=0;points=[[0,0.5],[1,0.5]];portConstraint=eastwest;whiteSpace=wrap;html=1;" parent="9jJaJCgMxhwfUNVwo0DU-14" vertex="1">
          <mxGeometry y="78" width="190" height="82" as="geometry" />
        </mxCell>
        <mxCell id="9jJaJCgMxhwfUNVwo0DU-19" value="- IteratorForLinkedList implements Iterator&amp;lt;T&amp;gt;" style="swimlane;fontStyle=1;align=center;verticalAlign=top;childLayout=stackLayout;horizontal=1;startSize=50;horizontalStack=0;resizeParent=1;resizeParentMax=0;resizeLast=0;collapsible=1;marginBottom=0;whiteSpace=wrap;html=1;" parent="9jJaJCgMxhwfUNVwo0DU-75" vertex="1">
          <mxGeometry x="1280" y="552" width="160" height="150" as="geometry" />
        </mxCell>
        <mxCell id="9jJaJCgMxhwfUNVwo0DU-20" value="- nextNode: Node" style="text;strokeColor=none;fillColor=none;align=left;verticalAlign=top;spacingLeft=4;spacingRight=4;overflow=hidden;rotatable=0;points=[[0,0.5],[1,0.5]];portConstraint=eastwest;whiteSpace=wrap;html=1;" parent="9jJaJCgMxhwfUNVwo0DU-19" vertex="1">
          <mxGeometry y="50" width="160" height="26" as="geometry" />
        </mxCell>
        <mxCell id="9jJaJCgMxhwfUNVwo0DU-21" value="" style="line;strokeWidth=1;fillColor=none;align=left;verticalAlign=middle;spacingTop=-1;spacingLeft=3;spacingRight=3;rotatable=0;labelPosition=right;points=[];portConstraint=eastwest;strokeColor=inherit;" parent="9jJaJCgMxhwfUNVwo0DU-19" vertex="1">
          <mxGeometry y="76" width="160" height="8" as="geometry" />
        </mxCell>
        <mxCell id="9jJaJCgMxhwfUNVwo0DU-22" value="- IteratorForLinkedList()&lt;br&gt;+ hasNext(): Boolean&lt;br&gt;+ next(): T&lt;br&gt;+ remove(): unsupported" style="text;strokeColor=none;fillColor=none;align=left;verticalAlign=top;spacingLeft=4;spacingRight=4;overflow=hidden;rotatable=0;points=[[0,0.5],[1,0.5]];portConstraint=eastwest;whiteSpace=wrap;html=1;" parent="9jJaJCgMxhwfUNVwo0DU-19" vertex="1">
          <mxGeometry y="84" width="160" height="66" as="geometry" />
        </mxCell>
        <mxCell id="9jJaJCgMxhwfUNVwo0DU-23" value="- Node" style="swimlane;fontStyle=1;align=center;verticalAlign=top;childLayout=stackLayout;horizontal=1;startSize=20;horizontalStack=0;resizeParent=1;resizeParentMax=0;resizeLast=0;collapsible=1;marginBottom=0;whiteSpace=wrap;html=1;" parent="9jJaJCgMxhwfUNVwo0DU-75" vertex="1">
          <mxGeometry x="1105" y="662" width="160" height="194" as="geometry" />
        </mxCell>
        <mxCell id="9jJaJCgMxhwfUNVwo0DU-24" value="- data: T&lt;br&gt;- next: Node" style="text;strokeColor=none;fillColor=none;align=left;verticalAlign=top;spacingLeft=4;spacingRight=4;overflow=hidden;rotatable=0;points=[[0,0.5],[1,0.5]];portConstraint=eastwest;whiteSpace=wrap;html=1;" parent="9jJaJCgMxhwfUNVwo0DU-23" vertex="1">
          <mxGeometry y="20" width="160" height="40" as="geometry" />
        </mxCell>
        <mxCell id="9jJaJCgMxhwfUNVwo0DU-25" value="" style="line;strokeWidth=1;fillColor=none;align=left;verticalAlign=middle;spacingTop=-1;spacingLeft=3;spacingRight=3;rotatable=0;labelPosition=right;points=[];portConstraint=eastwest;strokeColor=inherit;" parent="9jJaJCgMxhwfUNVwo0DU-23" vertex="1">
          <mxGeometry y="60" width="160" height="8" as="geometry" />
        </mxCell>
        <mxCell id="9jJaJCgMxhwfUNVwo0DU-26" value="- Node(dataPortion: T)&lt;br&gt;- Node(dataPortion: T, nextNode: Node)&lt;br&gt;- getData(): T&lt;br&gt;- setData(newData: T)&lt;br&gt;- getNextNode(): Node&lt;br&gt;- setNextNode(nextNode: Node)" style="text;strokeColor=none;fillColor=none;align=left;verticalAlign=top;spacingLeft=4;spacingRight=4;overflow=hidden;rotatable=0;points=[[0,0.5],[1,0.5]];portConstraint=eastwest;whiteSpace=wrap;html=1;" parent="9jJaJCgMxhwfUNVwo0DU-23" vertex="1">
          <mxGeometry y="68" width="160" height="126" as="geometry" />
        </mxCell>
        <mxCell id="9jJaJCgMxhwfUNVwo0DU-27" value="&lt;p style=&quot;margin:0px;margin-top:4px;text-align:center;&quot;&gt;&lt;i&gt;&amp;lt;&amp;lt;Interface&amp;gt;&amp;gt;&lt;/i&gt;&lt;br&gt;&lt;b&gt;QueueInterface&amp;lt;T&amp;gt;&lt;/b&gt;&lt;/p&gt;&lt;hr size=&quot;1&quot;&gt;&lt;p style=&quot;margin:0px;margin-left:4px;&quot;&gt;+ enqueue(newEntry: T)&lt;/p&gt;&lt;p style=&quot;margin:0px;margin-left:4px;&quot;&gt;+ dequeue(): T&lt;/p&gt;&lt;p style=&quot;margin:0px;margin-left:4px;&quot;&gt;+ getFront(): T&lt;/p&gt;&lt;p style=&quot;margin:0px;margin-left:4px;&quot;&gt;+ isEmpty(): Boolean&lt;/p&gt;&lt;p style=&quot;margin:0px;margin-left:4px;&quot;&gt;+ clear()&lt;/p&gt;" style="verticalAlign=top;align=left;overflow=fill;fontSize=12;fontFamily=Helvetica;html=1;whiteSpace=wrap;" parent="9jJaJCgMxhwfUNVwo0DU-75" vertex="1">
          <mxGeometry x="450" y="172" width="190" height="120" as="geometry" />
        </mxCell>
        <mxCell id="9jJaJCgMxhwfUNVwo0DU-37" style="edgeStyle=orthogonalEdgeStyle;rounded=0;orthogonalLoop=1;jettySize=auto;html=1;exitX=0.5;exitY=0;exitDx=0;exitDy=0;entryX=0.5;entryY=1;entryDx=0;entryDy=0;dashed=1;endArrow=block;endFill=0;" parent="9jJaJCgMxhwfUNVwo0DU-75" source="9jJaJCgMxhwfUNVwo0DU-28" target="9jJaJCgMxhwfUNVwo0DU-27" edge="1">
          <mxGeometry relative="1" as="geometry" />
        </mxCell>
        <mxCell id="9jJaJCgMxhwfUNVwo0DU-28" value="LinkedQueue&amp;lt;T&amp;gt;" style="swimlane;fontStyle=1;align=center;verticalAlign=top;childLayout=stackLayout;horizontal=1;startSize=26;horizontalStack=0;resizeParent=1;resizeParentMax=0;resizeLast=0;collapsible=1;marginBottom=0;whiteSpace=wrap;html=1;" parent="9jJaJCgMxhwfUNVwo0DU-75" vertex="1">
          <mxGeometry x="465" y="432" width="160" height="100" as="geometry" />
        </mxCell>
        <mxCell id="9jJaJCgMxhwfUNVwo0DU-29" value="- firstNode: Node&lt;br&gt;- lastNode: Node" style="text;strokeColor=none;fillColor=none;align=left;verticalAlign=top;spacingLeft=4;spacingRight=4;overflow=hidden;rotatable=0;points=[[0,0.5],[1,0.5]];portConstraint=eastwest;whiteSpace=wrap;html=1;" parent="9jJaJCgMxhwfUNVwo0DU-28" vertex="1">
          <mxGeometry y="26" width="160" height="34" as="geometry" />
        </mxCell>
        <mxCell id="9jJaJCgMxhwfUNVwo0DU-30" value="" style="line;strokeWidth=1;fillColor=none;align=left;verticalAlign=middle;spacingTop=-1;spacingLeft=3;spacingRight=3;rotatable=0;labelPosition=right;points=[];portConstraint=eastwest;strokeColor=inherit;" parent="9jJaJCgMxhwfUNVwo0DU-28" vertex="1">
          <mxGeometry y="60" width="160" height="8" as="geometry" />
        </mxCell>
        <mxCell id="9jJaJCgMxhwfUNVwo0DU-31" value="+ LinkedQueue()" style="text;strokeColor=none;fillColor=none;align=left;verticalAlign=top;spacingLeft=4;spacingRight=4;overflow=hidden;rotatable=0;points=[[0,0.5],[1,0.5]];portConstraint=eastwest;whiteSpace=wrap;html=1;" parent="9jJaJCgMxhwfUNVwo0DU-28" vertex="1">
          <mxGeometry y="68" width="160" height="32" as="geometry" />
        </mxCell>
        <mxCell id="9jJaJCgMxhwfUNVwo0DU-32" value="- Node" style="swimlane;fontStyle=1;align=center;verticalAlign=top;childLayout=stackLayout;horizontal=1;startSize=20;horizontalStack=0;resizeParent=1;resizeParentMax=0;resizeLast=0;collapsible=1;marginBottom=0;whiteSpace=wrap;html=1;" parent="9jJaJCgMxhwfUNVwo0DU-75" vertex="1">
          <mxGeometry x="420" y="532" width="160" height="194" as="geometry" />
        </mxCell>
        <mxCell id="9jJaJCgMxhwfUNVwo0DU-33" value="- data: T&lt;br&gt;- next: Node" style="text;strokeColor=none;fillColor=none;align=left;verticalAlign=top;spacingLeft=4;spacingRight=4;overflow=hidden;rotatable=0;points=[[0,0.5],[1,0.5]];portConstraint=eastwest;whiteSpace=wrap;html=1;" parent="9jJaJCgMxhwfUNVwo0DU-32" vertex="1">
          <mxGeometry y="20" width="160" height="40" as="geometry" />
        </mxCell>
        <mxCell id="9jJaJCgMxhwfUNVwo0DU-34" value="" style="line;strokeWidth=1;fillColor=none;align=left;verticalAlign=middle;spacingTop=-1;spacingLeft=3;spacingRight=3;rotatable=0;labelPosition=right;points=[];portConstraint=eastwest;strokeColor=inherit;" parent="9jJaJCgMxhwfUNVwo0DU-32" vertex="1">
          <mxGeometry y="60" width="160" height="8" as="geometry" />
        </mxCell>
        <mxCell id="9jJaJCgMxhwfUNVwo0DU-35" value="- Node(dataPortion: T)&lt;br&gt;- Node(dataPortion: T, linkPortion: Node)&lt;br&gt;- getData(): T&lt;br&gt;- setData(newData: T)&lt;br&gt;- getNextNode(): Node&lt;br&gt;- setNextNode(nextNode: Node)" style="text;strokeColor=none;fillColor=none;align=left;verticalAlign=top;spacingLeft=4;spacingRight=4;overflow=hidden;rotatable=0;points=[[0,0.5],[1,0.5]];portConstraint=eastwest;whiteSpace=wrap;html=1;" parent="9jJaJCgMxhwfUNVwo0DU-32" vertex="1">
          <mxGeometry y="68" width="160" height="126" as="geometry" />
        </mxCell>
        <mxCell id="9jJaJCgMxhwfUNVwo0DU-36" value="&lt;p style=&quot;margin:0px;margin-top:4px;text-align:center;&quot;&gt;&lt;i&gt;&amp;lt;&amp;lt;Interface&amp;gt;&amp;gt;&lt;/i&gt;&lt;br&gt;&lt;b&gt;StackInterface&amp;lt;T&amp;gt;&lt;/b&gt;&lt;/p&gt;&lt;hr size=&quot;1&quot;&gt;&lt;p style=&quot;margin:0px;margin-left:4px;&quot;&gt;+ push(newEntry: T)&lt;/p&gt;&lt;p style=&quot;margin:0px;margin-left:4px;&quot;&gt;+ pop(): T&lt;/p&gt;&lt;p style=&quot;margin:0px;margin-left:4px;&quot;&gt;+ peek(): T&lt;/p&gt;&lt;p style=&quot;margin:0px;margin-left:4px;&quot;&gt;+ isEmpty(): Boolean&lt;/p&gt;&lt;p style=&quot;margin:0px;margin-left:4px;&quot;&gt;+ clear()&lt;/p&gt;" style="verticalAlign=top;align=left;overflow=fill;fontSize=12;fontFamily=Helvetica;html=1;whiteSpace=wrap;" parent="9jJaJCgMxhwfUNVwo0DU-75" vertex="1">
          <mxGeometry x="210" y="182" width="190" height="120" as="geometry" />
        </mxCell>
        <mxCell id="9jJaJCgMxhwfUNVwo0DU-42" style="edgeStyle=orthogonalEdgeStyle;rounded=0;orthogonalLoop=1;jettySize=auto;html=1;exitX=0.5;exitY=0;exitDx=0;exitDy=0;dashed=1;endArrow=block;endFill=0;" parent="9jJaJCgMxhwfUNVwo0DU-75" source="9jJaJCgMxhwfUNVwo0DU-38" target="9jJaJCgMxhwfUNVwo0DU-36" edge="1">
          <mxGeometry relative="1" as="geometry" />
        </mxCell>
        <mxCell id="9jJaJCgMxhwfUNVwo0DU-38" value="LinkedStack&amp;lt;T&amp;gt;" style="swimlane;fontStyle=1;align=center;verticalAlign=top;childLayout=stackLayout;horizontal=1;startSize=26;horizontalStack=0;resizeParent=1;resizeParentMax=0;resizeLast=0;collapsible=1;marginBottom=0;whiteSpace=wrap;html=1;" parent="9jJaJCgMxhwfUNVwo0DU-75" vertex="1">
          <mxGeometry x="225" y="482" width="160" height="90" as="geometry" />
        </mxCell>
        <mxCell id="9jJaJCgMxhwfUNVwo0DU-39" value="- topNode: Node" style="text;strokeColor=none;fillColor=none;align=left;verticalAlign=top;spacingLeft=4;spacingRight=4;overflow=hidden;rotatable=0;points=[[0,0.5],[1,0.5]];portConstraint=eastwest;whiteSpace=wrap;html=1;" parent="9jJaJCgMxhwfUNVwo0DU-38" vertex="1">
          <mxGeometry y="26" width="160" height="34" as="geometry" />
        </mxCell>
        <mxCell id="9jJaJCgMxhwfUNVwo0DU-40" value="" style="line;strokeWidth=1;fillColor=none;align=left;verticalAlign=middle;spacingTop=-1;spacingLeft=3;spacingRight=3;rotatable=0;labelPosition=right;points=[];portConstraint=eastwest;strokeColor=inherit;" parent="9jJaJCgMxhwfUNVwo0DU-38" vertex="1">
          <mxGeometry y="60" width="160" height="8" as="geometry" />
        </mxCell>
        <mxCell id="9jJaJCgMxhwfUNVwo0DU-41" value="+ LinkedStack()" style="text;strokeColor=none;fillColor=none;align=left;verticalAlign=top;spacingLeft=4;spacingRight=4;overflow=hidden;rotatable=0;points=[[0,0.5],[1,0.5]];portConstraint=eastwest;whiteSpace=wrap;html=1;" parent="9jJaJCgMxhwfUNVwo0DU-38" vertex="1">
          <mxGeometry y="68" width="160" height="22" as="geometry" />
        </mxCell>
        <mxCell id="9jJaJCgMxhwfUNVwo0DU-43" value="- Node" style="swimlane;fontStyle=1;align=center;verticalAlign=top;childLayout=stackLayout;horizontal=1;startSize=20;horizontalStack=0;resizeParent=1;resizeParentMax=0;resizeLast=0;collapsible=1;marginBottom=0;whiteSpace=wrap;html=1;" parent="9jJaJCgMxhwfUNVwo0DU-75" vertex="1">
          <mxGeometry x="180" y="572" width="160" height="194" as="geometry" />
        </mxCell>
        <mxCell id="9jJaJCgMxhwfUNVwo0DU-44" value="- data: T&lt;br&gt;- next: Node" style="text;strokeColor=none;fillColor=none;align=left;verticalAlign=top;spacingLeft=4;spacingRight=4;overflow=hidden;rotatable=0;points=[[0,0.5],[1,0.5]];portConstraint=eastwest;whiteSpace=wrap;html=1;" parent="9jJaJCgMxhwfUNVwo0DU-43" vertex="1">
          <mxGeometry y="20" width="160" height="40" as="geometry" />
        </mxCell>
        <mxCell id="9jJaJCgMxhwfUNVwo0DU-45" value="" style="line;strokeWidth=1;fillColor=none;align=left;verticalAlign=middle;spacingTop=-1;spacingLeft=3;spacingRight=3;rotatable=0;labelPosition=right;points=[];portConstraint=eastwest;strokeColor=inherit;" parent="9jJaJCgMxhwfUNVwo0DU-43" vertex="1">
          <mxGeometry y="60" width="160" height="8" as="geometry" />
        </mxCell>
        <mxCell id="9jJaJCgMxhwfUNVwo0DU-46" value="- Node(dataPortion: T)&lt;br&gt;- Node(dataPortion: T, linkPortion: Node)&lt;br&gt;- getData(): T&lt;br&gt;- setData(newData: T)&lt;br&gt;- getNextNode(): Node&lt;br&gt;- setNextNode(nextNode: Node)" style="text;strokeColor=none;fillColor=none;align=left;verticalAlign=top;spacingLeft=4;spacingRight=4;overflow=hidden;rotatable=0;points=[[0,0.5],[1,0.5]];portConstraint=eastwest;whiteSpace=wrap;html=1;" parent="9jJaJCgMxhwfUNVwo0DU-43" vertex="1">
          <mxGeometry y="68" width="160" height="126" as="geometry" />
        </mxCell>
        <mxCell id="9jJaJCgMxhwfUNVwo0DU-47" value="&lt;p style=&quot;margin:0px;margin-top:4px;text-align:center;&quot;&gt;&lt;i&gt;&amp;lt;&amp;lt;Interface&amp;gt;&amp;gt;&lt;/i&gt;&lt;br&gt;&lt;b&gt;ListInterface&amp;lt;T&amp;gt;&lt;/b&gt;&lt;/p&gt;&lt;hr size=&quot;1&quot;&gt;&lt;p style=&quot;margin:0px;margin-left:4px;&quot;&gt;+ add(newEntry: T)&lt;/p&gt;&lt;p style=&quot;margin:0px;margin-left:4px;&quot;&gt;+ add(newPosition: Integer, newEntry: T)&lt;/p&gt;&lt;p style=&quot;margin:0px;margin-left:4px;&quot;&gt;+ remove(givenPosition: Integer): T&lt;/p&gt;&lt;p style=&quot;margin:0px;margin-left:4px;&quot;&gt;+ clear()&lt;/p&gt;&lt;p style=&quot;margin:0px;margin-left:4px;&quot;&gt;+ replace(givenPosition: Integer, newEntry: T): T&lt;/p&gt;&lt;p style=&quot;margin:0px;margin-left:4px;&quot;&gt;+ getEntry(givenPosition: Integer): T&lt;/p&gt;&lt;p style=&quot;margin:0px;margin-left:4px;&quot;&gt;+ toArray(): array of T&lt;/p&gt;&lt;p style=&quot;margin:0px;margin-left:4px;&quot;&gt;+ contains(): Boolean&lt;/p&gt;&lt;p style=&quot;margin:0px;margin-left:4px;&quot;&gt;+ getLength(): Integer&lt;/p&gt;&lt;p style=&quot;margin:0px;margin-left:4px;&quot;&gt;+ isEmpty(): Boolean&lt;/p&gt;" style="verticalAlign=top;align=left;overflow=fill;fontSize=12;fontFamily=Helvetica;html=1;whiteSpace=wrap;" parent="9jJaJCgMxhwfUNVwo0DU-75" vertex="1">
          <mxGeometry x="1140" y="62" width="190" height="250" as="geometry" />
        </mxCell>
        <mxCell id="9jJaJCgMxhwfUNVwo0DU-73" style="edgeStyle=orthogonalEdgeStyle;rounded=0;orthogonalLoop=1;jettySize=auto;html=1;exitX=0.5;exitY=0;exitDx=0;exitDy=0;entryX=0.5;entryY=1;entryDx=0;entryDy=0;endArrow=block;endFill=0;" parent="9jJaJCgMxhwfUNVwo0DU-75" source="9jJaJCgMxhwfUNVwo0DU-13" target="9jJaJCgMxhwfUNVwo0DU-47" edge="1">
          <mxGeometry relative="1" as="geometry" />
        </mxCell>
        <mxCell id="9jJaJCgMxhwfUNVwo0DU-48" value="&lt;p style=&quot;margin:0px;margin-top:4px;text-align:center;&quot;&gt;&lt;i&gt;&amp;lt;&amp;lt;Interface&amp;gt;&amp;gt;&lt;/i&gt;&lt;br&gt;&lt;b&gt;MaxHeapInterface&amp;lt;T extends Comparable&amp;lt;? super T&amp;gt;&amp;gt;&lt;/b&gt;&lt;/p&gt;&lt;hr size=&quot;1&quot;&gt;&lt;p style=&quot;margin:0px;margin-left:4px;&quot;&gt;+ add(newEntry: T)&lt;/p&gt;&lt;p style=&quot;margin:0px;margin-left:4px;&quot;&gt;+ removeMax(): T&lt;/p&gt;&lt;p style=&quot;margin:0px;margin-left:4px;&quot;&gt;+ getMax(): T&lt;/p&gt;&lt;p style=&quot;margin:0px;margin-left:4px;&quot;&gt;+ isEmpty(): Boolean&lt;/p&gt;&lt;p style=&quot;margin:0px;margin-left:4px;&quot;&gt;+ getSize(): Integer&lt;/p&gt;&lt;p style=&quot;margin:0px;margin-left:4px;&quot;&gt;+ clear()&lt;br&gt;&lt;/p&gt;" style="verticalAlign=top;align=left;overflow=fill;fontSize=12;fontFamily=Helvetica;html=1;whiteSpace=wrap;" parent="9jJaJCgMxhwfUNVwo0DU-75" vertex="1">
          <mxGeometry x="1460" y="197" width="190" height="150" as="geometry" />
        </mxCell>
        <mxCell id="9jJaJCgMxhwfUNVwo0DU-53" style="edgeStyle=orthogonalEdgeStyle;rounded=0;orthogonalLoop=1;jettySize=auto;html=1;exitX=0.5;exitY=0;exitDx=0;exitDy=0;entryX=0.542;entryY=0.993;entryDx=0;entryDy=0;entryPerimeter=0;dashed=1;endArrow=block;endFill=0;" parent="9jJaJCgMxhwfUNVwo0DU-75" source="9jJaJCgMxhwfUNVwo0DU-49" target="9jJaJCgMxhwfUNVwo0DU-48" edge="1">
          <mxGeometry relative="1" as="geometry" />
        </mxCell>
        <mxCell id="9jJaJCgMxhwfUNVwo0DU-49" value="MaxHeap&amp;lt;T extends Comparable&amp;lt;? super T&amp;gt;" style="swimlane;fontStyle=1;align=center;verticalAlign=top;childLayout=stackLayout;horizontal=1;startSize=40;horizontalStack=0;resizeParent=1;resizeParentMax=0;resizeLast=0;collapsible=1;marginBottom=0;whiteSpace=wrap;html=1;" parent="9jJaJCgMxhwfUNVwo0DU-75" vertex="1">
          <mxGeometry x="1470" y="462" width="190" height="300" as="geometry" />
        </mxCell>
        <mxCell id="9jJaJCgMxhwfUNVwo0DU-50" value="- heap: array of T&lt;br&gt;- lastIndex: Integer&lt;br&gt;- integrityOK: Boolean&lt;br&gt;- &amp;lt;&amp;lt;static&amp;gt;&amp;gt; final Integer DEFAULT_CAPACITY: 5&lt;br&gt;-&amp;lt;&amp;lt;static&amp;gt;&amp;gt; final Integer&amp;nbsp;&lt;br&gt;MAX_CAPACITY: 10000" style="text;strokeColor=none;fillColor=none;align=left;verticalAlign=top;spacingLeft=4;spacingRight=4;overflow=hidden;rotatable=0;points=[[0,0.5],[1,0.5]];portConstraint=eastwest;whiteSpace=wrap;html=1;" parent="9jJaJCgMxhwfUNVwo0DU-49" vertex="1">
          <mxGeometry y="40" width="190" height="110" as="geometry" />
        </mxCell>
        <mxCell id="9jJaJCgMxhwfUNVwo0DU-51" value="" style="line;strokeWidth=1;fillColor=none;align=left;verticalAlign=middle;spacingTop=-1;spacingLeft=3;spacingRight=3;rotatable=0;labelPosition=right;points=[];portConstraint=eastwest;strokeColor=inherit;" parent="9jJaJCgMxhwfUNVwo0DU-49" vertex="1">
          <mxGeometry y="150" width="190" height="8" as="geometry" />
        </mxCell>
        <mxCell id="9jJaJCgMxhwfUNVwo0DU-52" value="+ MaxHeap()&lt;br&gt;+ MaxHeap(initialCapacity; Integer)&lt;br&gt;+ MaxHeap(entries: array of T)&lt;br&gt;- reheap(rootIndex: Integer)&lt;br&gt;- ensureCapacity()&lt;br&gt;- checkIntegrity()&lt;br&gt;- checkCapacity(capacity: Integer)" style="text;strokeColor=none;fillColor=none;align=left;verticalAlign=top;spacingLeft=4;spacingRight=4;overflow=hidden;rotatable=0;points=[[0,0.5],[1,0.5]];portConstraint=eastwest;whiteSpace=wrap;html=1;" parent="9jJaJCgMxhwfUNVwo0DU-49" vertex="1">
          <mxGeometry y="158" width="190" height="142" as="geometry" />
        </mxCell>
        <mxCell id="9jJaJCgMxhwfUNVwo0DU-58" style="edgeStyle=orthogonalEdgeStyle;rounded=0;orthogonalLoop=1;jettySize=auto;html=1;exitX=0.5;exitY=0;exitDx=0;exitDy=0;entryX=0.458;entryY=0.994;entryDx=0;entryDy=0;entryPerimeter=0;dashed=1;endArrow=block;endFill=0;" parent="9jJaJCgMxhwfUNVwo0DU-75" source="9jJaJCgMxhwfUNVwo0DU-54" target="9jJaJCgMxhwfUNVwo0DU-2" edge="1">
          <mxGeometry relative="1" as="geometry" />
        </mxCell>
        <mxCell id="9jJaJCgMxhwfUNVwo0DU-54" value="UnsortedLinkedDictionary&amp;lt;K, V&amp;gt;" style="swimlane;fontStyle=1;align=center;verticalAlign=top;childLayout=stackLayout;horizontal=1;startSize=26;horizontalStack=0;resizeParent=1;resizeParentMax=0;resizeLast=0;collapsible=1;marginBottom=0;whiteSpace=wrap;html=1;" parent="9jJaJCgMxhwfUNVwo0DU-75" vertex="1">
          <mxGeometry x="660" y="502" width="200" height="94" as="geometry" />
        </mxCell>
        <mxCell id="9jJaJCgMxhwfUNVwo0DU-55" value="- firstNode: Node&lt;br&gt;- numberOfEntries: Integer" style="text;strokeColor=none;fillColor=none;align=left;verticalAlign=top;spacingLeft=4;spacingRight=4;overflow=hidden;rotatable=0;points=[[0,0.5],[1,0.5]];portConstraint=eastwest;whiteSpace=wrap;html=1;" parent="9jJaJCgMxhwfUNVwo0DU-54" vertex="1">
          <mxGeometry y="26" width="200" height="34" as="geometry" />
        </mxCell>
        <mxCell id="9jJaJCgMxhwfUNVwo0DU-56" value="" style="line;strokeWidth=1;fillColor=none;align=left;verticalAlign=middle;spacingTop=-1;spacingLeft=3;spacingRight=3;rotatable=0;labelPosition=right;points=[];portConstraint=eastwest;strokeColor=inherit;" parent="9jJaJCgMxhwfUNVwo0DU-54" vertex="1">
          <mxGeometry y="60" width="200" height="8" as="geometry" />
        </mxCell>
        <mxCell id="9jJaJCgMxhwfUNVwo0DU-57" value="- initializeDataFields()" style="text;strokeColor=none;fillColor=none;align=left;verticalAlign=top;spacingLeft=4;spacingRight=4;overflow=hidden;rotatable=0;points=[[0,0.5],[1,0.5]];portConstraint=eastwest;whiteSpace=wrap;html=1;" parent="9jJaJCgMxhwfUNVwo0DU-54" vertex="1">
          <mxGeometry y="68" width="200" height="26" as="geometry" />
        </mxCell>
        <mxCell id="9jJaJCgMxhwfUNVwo0DU-59" value="- KeyIterator implements Iterator&amp;lt;K&amp;gt;" style="swimlane;fontStyle=1;align=center;verticalAlign=top;childLayout=stackLayout;horizontal=1;startSize=36;horizontalStack=0;resizeParent=1;resizeParentMax=0;resizeLast=0;collapsible=1;marginBottom=0;whiteSpace=wrap;html=1;" parent="9jJaJCgMxhwfUNVwo0DU-75" vertex="1">
          <mxGeometry x="640" y="596" width="160" height="136" as="geometry" />
        </mxCell>
        <mxCell id="9jJaJCgMxhwfUNVwo0DU-60" value="- nextNode: Node" style="text;strokeColor=none;fillColor=none;align=left;verticalAlign=top;spacingLeft=4;spacingRight=4;overflow=hidden;rotatable=0;points=[[0,0.5],[1,0.5]];portConstraint=eastwest;whiteSpace=wrap;html=1;" parent="9jJaJCgMxhwfUNVwo0DU-59" vertex="1">
          <mxGeometry y="36" width="160" height="26" as="geometry" />
        </mxCell>
        <mxCell id="9jJaJCgMxhwfUNVwo0DU-61" value="" style="line;strokeWidth=1;fillColor=none;align=left;verticalAlign=middle;spacingTop=-1;spacingLeft=3;spacingRight=3;rotatable=0;labelPosition=right;points=[];portConstraint=eastwest;strokeColor=inherit;" parent="9jJaJCgMxhwfUNVwo0DU-59" vertex="1">
          <mxGeometry y="62" width="160" height="8" as="geometry" />
        </mxCell>
        <mxCell id="9jJaJCgMxhwfUNVwo0DU-62" value="- KeyIterator()&lt;br&gt;+ hasNext(): Boolean&lt;br&gt;+ next(): K&lt;br&gt;+ remove(): unsupported" style="text;strokeColor=none;fillColor=none;align=left;verticalAlign=top;spacingLeft=4;spacingRight=4;overflow=hidden;rotatable=0;points=[[0,0.5],[1,0.5]];portConstraint=eastwest;whiteSpace=wrap;html=1;" parent="9jJaJCgMxhwfUNVwo0DU-59" vertex="1">
          <mxGeometry y="70" width="160" height="66" as="geometry" />
        </mxCell>
        <mxCell id="9jJaJCgMxhwfUNVwo0DU-63" value="- ValueIterator implements Iterator&amp;lt;V&amp;gt;" style="swimlane;fontStyle=1;align=center;verticalAlign=top;childLayout=stackLayout;horizontal=1;startSize=36;horizontalStack=0;resizeParent=1;resizeParentMax=0;resizeLast=0;collapsible=1;marginBottom=0;whiteSpace=wrap;html=1;" parent="9jJaJCgMxhwfUNVwo0DU-75" vertex="1">
          <mxGeometry x="650" y="732" width="160" height="136" as="geometry" />
        </mxCell>
        <mxCell id="9jJaJCgMxhwfUNVwo0DU-64" value="- nextNode: Node" style="text;strokeColor=none;fillColor=none;align=left;verticalAlign=top;spacingLeft=4;spacingRight=4;overflow=hidden;rotatable=0;points=[[0,0.5],[1,0.5]];portConstraint=eastwest;whiteSpace=wrap;html=1;" parent="9jJaJCgMxhwfUNVwo0DU-63" vertex="1">
          <mxGeometry y="36" width="160" height="26" as="geometry" />
        </mxCell>
        <mxCell id="9jJaJCgMxhwfUNVwo0DU-65" value="" style="line;strokeWidth=1;fillColor=none;align=left;verticalAlign=middle;spacingTop=-1;spacingLeft=3;spacingRight=3;rotatable=0;labelPosition=right;points=[];portConstraint=eastwest;strokeColor=inherit;" parent="9jJaJCgMxhwfUNVwo0DU-63" vertex="1">
          <mxGeometry y="62" width="160" height="8" as="geometry" />
        </mxCell>
        <mxCell id="9jJaJCgMxhwfUNVwo0DU-66" value="- ValueIterator()&lt;br&gt;+ hasNext(): Boolean&lt;br&gt;+ next(): V&lt;br&gt;+ remove(): unsupported" style="text;strokeColor=none;fillColor=none;align=left;verticalAlign=top;spacingLeft=4;spacingRight=4;overflow=hidden;rotatable=0;points=[[0,0.5],[1,0.5]];portConstraint=eastwest;whiteSpace=wrap;html=1;" parent="9jJaJCgMxhwfUNVwo0DU-63" vertex="1">
          <mxGeometry y="70" width="160" height="66" as="geometry" />
        </mxCell>
        <mxCell id="9jJaJCgMxhwfUNVwo0DU-67" value="- Node" style="swimlane;fontStyle=1;align=center;verticalAlign=top;childLayout=stackLayout;horizontal=1;startSize=20;horizontalStack=0;resizeParent=1;resizeParentMax=0;resizeLast=0;collapsible=1;marginBottom=0;whiteSpace=wrap;html=1;" parent="9jJaJCgMxhwfUNVwo0DU-75" vertex="1">
          <mxGeometry x="620" y="868" width="160" height="250" as="geometry" />
        </mxCell>
        <mxCell id="9jJaJCgMxhwfUNVwo0DU-68" value="- key: K&lt;br&gt;- value: V&lt;br&gt;- next: Node" style="text;strokeColor=none;fillColor=none;align=left;verticalAlign=top;spacingLeft=4;spacingRight=4;overflow=hidden;rotatable=0;points=[[0,0.5],[1,0.5]];portConstraint=eastwest;whiteSpace=wrap;html=1;" parent="9jJaJCgMxhwfUNVwo0DU-67" vertex="1">
          <mxGeometry y="20" width="160" height="50" as="geometry" />
        </mxCell>
        <mxCell id="9jJaJCgMxhwfUNVwo0DU-69" value="" style="line;strokeWidth=1;fillColor=none;align=left;verticalAlign=middle;spacingTop=-1;spacingLeft=3;spacingRight=3;rotatable=0;labelPosition=right;points=[];portConstraint=eastwest;strokeColor=inherit;" parent="9jJaJCgMxhwfUNVwo0DU-67" vertex="1">
          <mxGeometry y="70" width="160" height="8" as="geometry" />
        </mxCell>
        <mxCell id="9jJaJCgMxhwfUNVwo0DU-70" value="- Node(searchKey: K, dataValue: V)&lt;br&gt;- Node(searchKey: K, dataValue: V, nextNode: Node)&lt;br style=&quot;border-color: var(--border-color);&quot;&gt;- getKey(): K&lt;br&gt;- getValue(): V&lt;br&gt;- setValue(newValue: V)&lt;br&gt;- getNextNode(): Node&lt;br&gt;- setNextNode(nextNode: Node)" style="text;strokeColor=none;fillColor=none;align=left;verticalAlign=top;spacingLeft=4;spacingRight=4;overflow=hidden;rotatable=0;points=[[0,0.5],[1,0.5]];portConstraint=eastwest;whiteSpace=wrap;html=1;" parent="9jJaJCgMxhwfUNVwo0DU-67" vertex="1">
          <mxGeometry y="78" width="160" height="172" as="geometry" />
        </mxCell>
        <mxCell id="9jJaJCgMxhwfUNVwo0DU-71" value="RuntimeException" style="html=1;whiteSpace=wrap;fillColor=#f5f5f5;fontColor=#333333;strokeColor=#666666;" parent="9jJaJCgMxhwfUNVwo0DU-75" vertex="1">
          <mxGeometry x="40" y="202" width="110" height="50" as="geometry" />
        </mxCell>
        <mxCell id="9jJaJCgMxhwfUNVwo0DU-72" style="edgeStyle=orthogonalEdgeStyle;rounded=0;orthogonalLoop=1;jettySize=auto;html=1;exitX=0.5;exitY=0;exitDx=0;exitDy=0;entryX=0.5;entryY=1;entryDx=0;entryDy=0;endArrow=block;endFill=0;" parent="9jJaJCgMxhwfUNVwo0DU-75" source="9jJaJCgMxhwfUNVwo0DU-3" target="9jJaJCgMxhwfUNVwo0DU-71" edge="1">
          <mxGeometry relative="1" as="geometry" />
        </mxCell>
        <mxCell id="9jJaJCgMxhwfUNVwo0DU-121" value="" style="group;fillColor=default;strokeColor=default;" parent="1" vertex="1" connectable="0">
          <mxGeometry x="-1300" y="2100" width="960" height="940" as="geometry" />
        </mxCell>
        <mxCell id="9jJaJCgMxhwfUNVwo0DU-76" value="GraphPackage" style="text;html=1;align=center;verticalAlign=middle;resizable=0;points=[];autosize=1;strokeColor=none;fillColor=none;fontSize=30;fontStyle=1" parent="9jJaJCgMxhwfUNVwo0DU-121" vertex="1">
          <mxGeometry x="230" width="230" height="50" as="geometry" />
        </mxCell>
        <mxCell id="9jJaJCgMxhwfUNVwo0DU-77" value="&lt;p style=&quot;margin:0px;margin-top:4px;text-align:center;&quot;&gt;&lt;i&gt;&amp;lt;&amp;lt;Interface&amp;gt;&amp;gt;&lt;/i&gt;&lt;br&gt;&lt;b&gt;BasicGraphInterface&amp;lt;T&amp;gt;&lt;/b&gt;&lt;/p&gt;&lt;hr size=&quot;1&quot;&gt;&lt;p style=&quot;margin:0px;margin-left:4px;&quot;&gt;+ addVertex(vertexLabel: T): Boolean&lt;/p&gt;&lt;p style=&quot;margin:0px;margin-left:4px;&quot;&gt;+ addEdge(begin: T, end: T, edgeWeight: Double): Boolean&lt;/p&gt;&lt;p style=&quot;margin:0px;margin-left:4px;&quot;&gt;+ addEdge(begin: T, end: T): Boolean&lt;/p&gt;&lt;p style=&quot;margin:0px;margin-left:4px;&quot;&gt;+ hasEdge(begin: T, end: T): Boolean&lt;/p&gt;&lt;p style=&quot;margin:0px;margin-left:4px;&quot;&gt;+ isEmpty(): Boolean&lt;/p&gt;&lt;p style=&quot;margin:0px;margin-left:4px;&quot;&gt;+ getNumberOfVertices(): Integer&lt;/p&gt;&lt;p style=&quot;margin:0px;margin-left:4px;&quot;&gt;+ getNumberOfEdges(): Integer&lt;/p&gt;&lt;p style=&quot;margin:0px;margin-left:4px;&quot;&gt;+ clear()&lt;/p&gt;" style="verticalAlign=top;align=left;overflow=fill;fontSize=12;fontFamily=Helvetica;html=1;whiteSpace=wrap;" parent="9jJaJCgMxhwfUNVwo0DU-121" vertex="1">
          <mxGeometry x="250" y="70" width="190" height="220" as="geometry" />
        </mxCell>
        <mxCell id="9jJaJCgMxhwfUNVwo0DU-78" value="&lt;p style=&quot;margin:0px;margin-top:4px;text-align:center;&quot;&gt;&lt;i&gt;&amp;lt;&amp;lt;Interface&amp;gt;&amp;gt;&lt;/i&gt;&lt;br&gt;&lt;b&gt;GraphAlgorithmsInterface&amp;lt;T&amp;gt;&lt;/b&gt;&lt;/p&gt;&lt;hr size=&quot;1&quot;&gt;&lt;p style=&quot;margin:0px;margin-left:4px;&quot;&gt;+ getBreadthFirstTraversal(origin: T): QueueInterface&amp;lt;T&amp;gt;&lt;/p&gt;&lt;p style=&quot;margin:0px;margin-left:4px;&quot;&gt;+ getDepthFirstTraversal(origin:T): QueueInterface&amp;lt;T&amp;gt;&lt;/p&gt;&lt;p style=&quot;margin:0px;margin-left:4px;&quot;&gt;+ getTopologicalOrder(): StackInterface&amp;lt;T&amp;gt;&lt;/p&gt;&lt;p style=&quot;margin:0px;margin-left:4px;&quot;&gt;+ getShortestPath(begin: T, end: T, path: StackInterface&amp;lt;T&amp;gt;): Integer&lt;/p&gt;&lt;p style=&quot;margin:0px;margin-left:4px;&quot;&gt;+ getCheapestPath(begin: T, end: T. path: StackInterface&amp;lt;T&amp;gt;): Double&lt;/p&gt;" style="verticalAlign=top;align=left;overflow=fill;fontSize=12;fontFamily=Helvetica;html=1;whiteSpace=wrap;" parent="9jJaJCgMxhwfUNVwo0DU-121" vertex="1">
          <mxGeometry x="30" y="70" width="190" height="210" as="geometry" />
        </mxCell>
        <mxCell id="9jJaJCgMxhwfUNVwo0DU-80" style="edgeStyle=orthogonalEdgeStyle;rounded=0;orthogonalLoop=1;jettySize=auto;html=1;exitX=0.75;exitY=0;exitDx=0;exitDy=0;entryX=0.5;entryY=1;entryDx=0;entryDy=0;endArrow=block;endFill=0;" parent="9jJaJCgMxhwfUNVwo0DU-121" source="9jJaJCgMxhwfUNVwo0DU-79" target="9jJaJCgMxhwfUNVwo0DU-77" edge="1">
          <mxGeometry relative="1" as="geometry" />
        </mxCell>
        <mxCell id="9jJaJCgMxhwfUNVwo0DU-81" style="edgeStyle=orthogonalEdgeStyle;rounded=0;orthogonalLoop=1;jettySize=auto;html=1;exitX=0.25;exitY=0;exitDx=0;exitDy=0;entryX=0.5;entryY=1;entryDx=0;entryDy=0;endArrow=block;endFill=0;" parent="9jJaJCgMxhwfUNVwo0DU-121" source="9jJaJCgMxhwfUNVwo0DU-79" target="9jJaJCgMxhwfUNVwo0DU-78" edge="1">
          <mxGeometry relative="1" as="geometry" />
        </mxCell>
        <mxCell id="9jJaJCgMxhwfUNVwo0DU-79" value="&lt;p style=&quot;margin:0px;margin-top:4px;text-align:center;&quot;&gt;&lt;i&gt;&amp;lt;&amp;lt;Interface&amp;gt;&amp;gt;&lt;/i&gt;&lt;br&gt;&lt;b&gt;GraphInterface&amp;lt;T&amp;gt;&lt;/b&gt;&lt;/p&gt;&lt;hr size=&quot;1&quot;&gt;&lt;p style=&quot;margin:0px;margin-left:4px;&quot;&gt;&lt;br&gt;&lt;/p&gt;" style="verticalAlign=top;align=left;overflow=fill;fontSize=12;fontFamily=Helvetica;html=1;whiteSpace=wrap;" parent="9jJaJCgMxhwfUNVwo0DU-121" vertex="1">
          <mxGeometry x="160" y="360" width="190" height="50" as="geometry" />
        </mxCell>
        <mxCell id="9jJaJCgMxhwfUNVwo0DU-82" value="&lt;p style=&quot;margin:0px;margin-top:4px;text-align:center;&quot;&gt;&lt;i&gt;&amp;lt;&amp;lt;Interface&amp;gt;&amp;gt;&lt;/i&gt;&lt;br&gt;&lt;b&gt;VertexInterface&amp;lt;T&amp;gt;&lt;/b&gt;&lt;/p&gt;&lt;hr size=&quot;1&quot;&gt;&lt;p style=&quot;margin:0px;margin-left:4px;&quot;&gt;+ getLabel(): T&lt;br&gt;&lt;/p&gt;&lt;p style=&quot;margin:0px;margin-left:4px;&quot;&gt;+ visit()&lt;/p&gt;&lt;p style=&quot;margin:0px;margin-left:4px;&quot;&gt;+ unvisit()&lt;/p&gt;&lt;p style=&quot;margin:0px;margin-left:4px;&quot;&gt;+ isVisited(): Boolean&lt;/p&gt;&lt;p style=&quot;margin:0px;margin-left:4px;&quot;&gt;+ connect(endVertex: VertexInterface&amp;lt;T&amp;gt;, edgeWeight: Double): Boolean&lt;/p&gt;&lt;p style=&quot;margin:0px;margin-left:4px;&quot;&gt;+ connect(endVertex: VertexInterface&amp;lt;T&amp;gt;): Boolean&lt;/p&gt;&lt;p style=&quot;margin:0px;margin-left:4px;&quot;&gt;+ getNeighborIterator(): Iterator&amp;lt;VertexInterface&amp;lt;T&amp;gt;&amp;gt;&lt;/p&gt;&lt;p style=&quot;margin:0px;margin-left:4px;&quot;&gt;+ getWeightIterator(): Iterator&amp;lt;Double&amp;gt;&lt;/p&gt;&lt;p style=&quot;margin:0px;margin-left:4px;&quot;&gt;+ hasNeighbor(): Boolean&lt;/p&gt;&lt;p style=&quot;margin:0px;margin-left:4px;&quot;&gt;+ getUnvisitedNeighbor(): VertexInterface&amp;lt;T&amp;gt;&lt;/p&gt;&lt;p style=&quot;margin:0px;margin-left:4px;&quot;&gt;+ setPredecessor(predecessor: VertexInterface&amp;lt;T&amp;gt;)&lt;/p&gt;&lt;p style=&quot;margin:0px;margin-left:4px;&quot;&gt;+ getPredecessor(): VertexInterface&amp;lt;T&amp;gt;&lt;/p&gt;&lt;p style=&quot;margin:0px;margin-left:4px;&quot;&gt;+ hasPredecessor(): Boolean&lt;/p&gt;&lt;p style=&quot;margin:0px;margin-left:4px;&quot;&gt;+ setCost(newCost: Double)&lt;/p&gt;&lt;p style=&quot;margin:0px;margin-left:4px;&quot;&gt;+ getCost(): Double&lt;/p&gt;" style="verticalAlign=top;align=left;overflow=fill;fontSize=12;fontFamily=Helvetica;html=1;whiteSpace=wrap;" parent="9jJaJCgMxhwfUNVwo0DU-121" vertex="1">
          <mxGeometry x="480" y="70" width="190" height="380" as="geometry" />
        </mxCell>
        <mxCell id="9jJaJCgMxhwfUNVwo0DU-87" style="edgeStyle=orthogonalEdgeStyle;rounded=0;orthogonalLoop=1;jettySize=auto;html=1;exitX=0.5;exitY=0;exitDx=0;exitDy=0;dashed=1;endArrow=block;endFill=0;" parent="9jJaJCgMxhwfUNVwo0DU-121" source="9jJaJCgMxhwfUNVwo0DU-83" target="9jJaJCgMxhwfUNVwo0DU-79" edge="1">
          <mxGeometry relative="1" as="geometry" />
        </mxCell>
        <mxCell id="9jJaJCgMxhwfUNVwo0DU-83" value="DirectedGraph&amp;lt;T&amp;gt;" style="swimlane;fontStyle=1;align=center;verticalAlign=top;childLayout=stackLayout;horizontal=1;startSize=26;horizontalStack=0;resizeParent=1;resizeParentMax=0;resizeLast=0;collapsible=1;marginBottom=0;whiteSpace=wrap;html=1;" parent="9jJaJCgMxhwfUNVwo0DU-121" vertex="1">
          <mxGeometry x="160" y="530" width="190" height="160" as="geometry" />
        </mxCell>
        <mxCell id="9jJaJCgMxhwfUNVwo0DU-84" value="- vertices: DictionaryInterface&amp;lt;T, VertexInterface&amp;lt;T&amp;gt;&amp;gt;&lt;br&gt;- edgeCount: Integer" style="text;strokeColor=none;fillColor=none;align=left;verticalAlign=top;spacingLeft=4;spacingRight=4;overflow=hidden;rotatable=0;points=[[0,0.5],[1,0.5]];portConstraint=eastwest;whiteSpace=wrap;html=1;" parent="9jJaJCgMxhwfUNVwo0DU-83" vertex="1">
          <mxGeometry y="26" width="190" height="54" as="geometry" />
        </mxCell>
        <mxCell id="9jJaJCgMxhwfUNVwo0DU-85" value="" style="line;strokeWidth=1;fillColor=none;align=left;verticalAlign=middle;spacingTop=-1;spacingLeft=3;spacingRight=3;rotatable=0;labelPosition=right;points=[];portConstraint=eastwest;strokeColor=inherit;" parent="9jJaJCgMxhwfUNVwo0DU-83" vertex="1">
          <mxGeometry y="80" width="190" height="8" as="geometry" />
        </mxCell>
        <mxCell id="9jJaJCgMxhwfUNVwo0DU-86" value="# resetVertices()&lt;br&gt;# findTerminal(): VertexInterface&amp;lt;T&amp;gt;&lt;br&gt;+ displayEdges()" style="text;strokeColor=none;fillColor=none;align=left;verticalAlign=top;spacingLeft=4;spacingRight=4;overflow=hidden;rotatable=0;points=[[0,0.5],[1,0.5]];portConstraint=eastwest;whiteSpace=wrap;html=1;" parent="9jJaJCgMxhwfUNVwo0DU-83" vertex="1">
          <mxGeometry y="88" width="190" height="72" as="geometry" />
        </mxCell>
        <mxCell id="9jJaJCgMxhwfUNVwo0DU-88" value="-EntryPQ implements Comparable&amp;lt;EntryPQ&amp;gt;" style="swimlane;fontStyle=1;align=center;verticalAlign=top;childLayout=stackLayout;horizontal=1;startSize=40;horizontalStack=0;resizeParent=1;resizeParentMax=0;resizeLast=0;collapsible=1;marginBottom=0;whiteSpace=wrap;html=1;" parent="9jJaJCgMxhwfUNVwo0DU-121" vertex="1">
          <mxGeometry x="350" y="560" width="190" height="290" as="geometry" />
        </mxCell>
        <mxCell id="9jJaJCgMxhwfUNVwo0DU-89" value="- vertex: VertexInterface&amp;lt;T&amp;gt;&lt;br&gt;- previousVertex: VertexInterface&amp;lt;T&amp;gt;&lt;br&gt;- cost: Double" style="text;strokeColor=none;fillColor=none;align=left;verticalAlign=top;spacingLeft=4;spacingRight=4;overflow=hidden;rotatable=0;points=[[0,0.5],[1,0.5]];portConstraint=eastwest;whiteSpace=wrap;html=1;" parent="9jJaJCgMxhwfUNVwo0DU-88" vertex="1">
          <mxGeometry y="40" width="190" height="70" as="geometry" />
        </mxCell>
        <mxCell id="9jJaJCgMxhwfUNVwo0DU-90" value="" style="line;strokeWidth=1;fillColor=none;align=left;verticalAlign=middle;spacingTop=-1;spacingLeft=3;spacingRight=3;rotatable=0;labelPosition=right;points=[];portConstraint=eastwest;strokeColor=inherit;" parent="9jJaJCgMxhwfUNVwo0DU-88" vertex="1">
          <mxGeometry y="110" width="190" height="8" as="geometry" />
        </mxCell>
        <mxCell id="9jJaJCgMxhwfUNVwo0DU-91" value="- EntryPQ(vertex: VertexInterface&amp;lt;T&amp;gt;, cost: Double, previousVertex: VertexInterface&amp;lt;T&amp;gt;)&lt;br&gt;+ getVertex(): VertexInterface&amp;lt;T&amp;gt;&lt;br&gt;+ getPredecessor(): VertexInterface&amp;lt;T&amp;gt;&lt;br&gt;+ getCost(): Double&lt;br&gt;+ compareTo(otherEntry: EntryPQ): Integer&lt;br&gt;+ toString(): String" style="text;strokeColor=none;fillColor=none;align=left;verticalAlign=top;spacingLeft=4;spacingRight=4;overflow=hidden;rotatable=0;points=[[0,0.5],[1,0.5]];portConstraint=eastwest;whiteSpace=wrap;html=1;" parent="9jJaJCgMxhwfUNVwo0DU-88" vertex="1">
          <mxGeometry y="118" width="190" height="172" as="geometry" />
        </mxCell>
        <mxCell id="9jJaJCgMxhwfUNVwo0DU-97" style="edgeStyle=orthogonalEdgeStyle;rounded=0;orthogonalLoop=1;jettySize=auto;html=1;exitX=0.5;exitY=0;exitDx=0;exitDy=0;entryX=0.501;entryY=0.997;entryDx=0;entryDy=0;entryPerimeter=0;endArrow=block;endFill=0;" parent="9jJaJCgMxhwfUNVwo0DU-121" source="9jJaJCgMxhwfUNVwo0DU-93" target="9jJaJCgMxhwfUNVwo0DU-86" edge="1">
          <mxGeometry relative="1" as="geometry" />
        </mxCell>
        <mxCell id="9jJaJCgMxhwfUNVwo0DU-98" style="edgeStyle=orthogonalEdgeStyle;rounded=0;orthogonalLoop=1;jettySize=auto;html=1;exitX=0.25;exitY=0;exitDx=0;exitDy=0;entryX=0.304;entryY=1.02;entryDx=0;entryDy=0;entryPerimeter=0;dashed=1;endArrow=block;endFill=0;" parent="9jJaJCgMxhwfUNVwo0DU-121" source="9jJaJCgMxhwfUNVwo0DU-93" target="9jJaJCgMxhwfUNVwo0DU-79" edge="1">
          <mxGeometry relative="1" as="geometry">
            <Array as="points">
              <mxPoint x="47" y="600" />
              <mxPoint x="50" y="600" />
              <mxPoint x="50" y="470" />
              <mxPoint x="218" y="470" />
            </Array>
          </mxGeometry>
        </mxCell>
        <mxCell id="9jJaJCgMxhwfUNVwo0DU-93" value="UndirectedGraph&amp;lt;T&amp;gt;" style="swimlane;fontStyle=1;align=center;verticalAlign=top;childLayout=stackLayout;horizontal=1;startSize=26;horizontalStack=0;resizeParent=1;resizeParentMax=0;resizeLast=0;collapsible=1;marginBottom=0;whiteSpace=wrap;html=1;" parent="9jJaJCgMxhwfUNVwo0DU-121" vertex="1">
          <mxGeometry y="790" width="190" height="150" as="geometry" />
        </mxCell>
        <mxCell id="9jJaJCgMxhwfUNVwo0DU-95" value="" style="line;strokeWidth=1;fillColor=none;align=left;verticalAlign=middle;spacingTop=-1;spacingLeft=3;spacingRight=3;rotatable=0;labelPosition=right;points=[];portConstraint=eastwest;strokeColor=inherit;" parent="9jJaJCgMxhwfUNVwo0DU-93" vertex="1">
          <mxGeometry y="26" width="190" height="8" as="geometry" />
        </mxCell>
        <mxCell id="9jJaJCgMxhwfUNVwo0DU-96" value="+ addEdge(begin: T, end: T, edgeWeight: Double): Boolean&lt;br&gt;+ addEdge(begin: T, end: T): Boolean&lt;br&gt;+ getNumberOfEdges(): Integer&lt;br&gt;+ getTopologicalOrder(): UnsupportedOperationException" style="text;strokeColor=none;fillColor=none;align=left;verticalAlign=top;spacingLeft=4;spacingRight=4;overflow=hidden;rotatable=0;points=[[0,0.5],[1,0.5]];portConstraint=eastwest;whiteSpace=wrap;html=1;" parent="9jJaJCgMxhwfUNVwo0DU-93" vertex="1">
          <mxGeometry y="34" width="190" height="116" as="geometry" />
        </mxCell>
        <mxCell id="9jJaJCgMxhwfUNVwo0DU-103" style="edgeStyle=orthogonalEdgeStyle;rounded=0;orthogonalLoop=1;jettySize=auto;html=1;exitX=0.5;exitY=0;exitDx=0;exitDy=0;dashed=1;endArrow=block;endFill=0;" parent="9jJaJCgMxhwfUNVwo0DU-121" source="9jJaJCgMxhwfUNVwo0DU-99" target="9jJaJCgMxhwfUNVwo0DU-82" edge="1">
          <mxGeometry relative="1" as="geometry" />
        </mxCell>
        <mxCell id="9jJaJCgMxhwfUNVwo0DU-99" value="Vertex&amp;lt;T&amp;gt;" style="swimlane;fontStyle=1;align=center;verticalAlign=top;childLayout=stackLayout;horizontal=1;startSize=26;horizontalStack=0;resizeParent=1;resizeParentMax=0;resizeLast=0;collapsible=1;marginBottom=0;whiteSpace=wrap;html=1;" parent="9jJaJCgMxhwfUNVwo0DU-121" vertex="1">
          <mxGeometry x="580" y="530" width="190" height="210" as="geometry" />
        </mxCell>
        <mxCell id="9jJaJCgMxhwfUNVwo0DU-100" value="- label: T&lt;br&gt;- edgeList: ListWithIteratorInterface&amp;lt;Edge&amp;gt;&lt;br&gt;- visited: Boolean&lt;br&gt;- previousVertex: VertexInterface&amp;lt;T&amp;gt;&lt;br&gt;- cost: Double" style="text;strokeColor=none;fillColor=none;align=left;verticalAlign=top;spacingLeft=4;spacingRight=4;overflow=hidden;rotatable=0;points=[[0,0.5],[1,0.5]];portConstraint=eastwest;whiteSpace=wrap;html=1;" parent="9jJaJCgMxhwfUNVwo0DU-99" vertex="1">
          <mxGeometry y="26" width="190" height="104" as="geometry" />
        </mxCell>
        <mxCell id="9jJaJCgMxhwfUNVwo0DU-101" value="" style="line;strokeWidth=1;fillColor=none;align=left;verticalAlign=middle;spacingTop=-1;spacingLeft=3;spacingRight=3;rotatable=0;labelPosition=right;points=[];portConstraint=eastwest;strokeColor=inherit;" parent="9jJaJCgMxhwfUNVwo0DU-99" vertex="1">
          <mxGeometry y="130" width="190" height="8" as="geometry" />
        </mxCell>
        <mxCell id="9jJaJCgMxhwfUNVwo0DU-102" value="+ Vertex(vertexLabel: T)&lt;br&gt;+ toString(): String&lt;br&gt;+ equals(other: Object): Boolean&lt;br&gt;+ display()" style="text;strokeColor=none;fillColor=none;align=left;verticalAlign=top;spacingLeft=4;spacingRight=4;overflow=hidden;rotatable=0;points=[[0,0.5],[1,0.5]];portConstraint=eastwest;whiteSpace=wrap;html=1;" parent="9jJaJCgMxhwfUNVwo0DU-99" vertex="1">
          <mxGeometry y="138" width="190" height="72" as="geometry" />
        </mxCell>
        <mxCell id="9jJaJCgMxhwfUNVwo0DU-104" value="- WeightIterator implements Iterator&amp;lt;Double&amp;gt;" style="swimlane;fontStyle=1;align=center;verticalAlign=top;childLayout=stackLayout;horizontal=1;startSize=36;horizontalStack=0;resizeParent=1;resizeParentMax=0;resizeLast=0;collapsible=1;marginBottom=0;whiteSpace=wrap;html=1;" parent="9jJaJCgMxhwfUNVwo0DU-121" vertex="1">
          <mxGeometry x="770" y="610" width="190" height="136" as="geometry" />
        </mxCell>
        <mxCell id="9jJaJCgMxhwfUNVwo0DU-105" value="- edges: Iterator&amp;lt;Edge&amp;gt;" style="text;strokeColor=none;fillColor=none;align=left;verticalAlign=top;spacingLeft=4;spacingRight=4;overflow=hidden;rotatable=0;points=[[0,0.5],[1,0.5]];portConstraint=eastwest;whiteSpace=wrap;html=1;" parent="9jJaJCgMxhwfUNVwo0DU-104" vertex="1">
          <mxGeometry y="36" width="190" height="26" as="geometry" />
        </mxCell>
        <mxCell id="9jJaJCgMxhwfUNVwo0DU-106" value="" style="line;strokeWidth=1;fillColor=none;align=left;verticalAlign=middle;spacingTop=-1;spacingLeft=3;spacingRight=3;rotatable=0;labelPosition=right;points=[];portConstraint=eastwest;strokeColor=inherit;" parent="9jJaJCgMxhwfUNVwo0DU-104" vertex="1">
          <mxGeometry y="62" width="190" height="8" as="geometry" />
        </mxCell>
        <mxCell id="9jJaJCgMxhwfUNVwo0DU-107" value="- WeightIterator()&lt;br&gt;+ hasNext(): Boolean&lt;br&gt;+ next(): Double&lt;br&gt;+ remove(): unsupported" style="text;strokeColor=none;fillColor=none;align=left;verticalAlign=top;spacingLeft=4;spacingRight=4;overflow=hidden;rotatable=0;points=[[0,0.5],[1,0.5]];portConstraint=eastwest;whiteSpace=wrap;html=1;" parent="9jJaJCgMxhwfUNVwo0DU-104" vertex="1">
          <mxGeometry y="70" width="190" height="66" as="geometry" />
        </mxCell>
        <mxCell id="9jJaJCgMxhwfUNVwo0DU-108" value="- NeighborIterator implements Iterator&amp;lt;VertexInterface&amp;lt;T&amp;gt;&amp;gt;" style="swimlane;fontStyle=1;align=center;verticalAlign=top;childLayout=stackLayout;horizontal=1;startSize=36;horizontalStack=0;resizeParent=1;resizeParentMax=0;resizeLast=0;collapsible=1;marginBottom=0;whiteSpace=wrap;html=1;" parent="9jJaJCgMxhwfUNVwo0DU-121" vertex="1">
          <mxGeometry x="770" y="460" width="190" height="136" as="geometry" />
        </mxCell>
        <mxCell id="9jJaJCgMxhwfUNVwo0DU-109" value="- edges: Iterator&amp;lt;Edge&amp;gt;" style="text;strokeColor=none;fillColor=none;align=left;verticalAlign=top;spacingLeft=4;spacingRight=4;overflow=hidden;rotatable=0;points=[[0,0.5],[1,0.5]];portConstraint=eastwest;whiteSpace=wrap;html=1;" parent="9jJaJCgMxhwfUNVwo0DU-108" vertex="1">
          <mxGeometry y="36" width="190" height="26" as="geometry" />
        </mxCell>
        <mxCell id="9jJaJCgMxhwfUNVwo0DU-110" value="" style="line;strokeWidth=1;fillColor=none;align=left;verticalAlign=middle;spacingTop=-1;spacingLeft=3;spacingRight=3;rotatable=0;labelPosition=right;points=[];portConstraint=eastwest;strokeColor=inherit;" parent="9jJaJCgMxhwfUNVwo0DU-108" vertex="1">
          <mxGeometry y="62" width="190" height="8" as="geometry" />
        </mxCell>
        <mxCell id="9jJaJCgMxhwfUNVwo0DU-111" value="- NeighborIterator()&lt;br&gt;+ hasNext(): Boolean&lt;br&gt;+ next(): VertexInterface&amp;lt;T&amp;gt;&lt;br&gt;+ remove(): unsupported" style="text;strokeColor=none;fillColor=none;align=left;verticalAlign=top;spacingLeft=4;spacingRight=4;overflow=hidden;rotatable=0;points=[[0,0.5],[1,0.5]];portConstraint=eastwest;whiteSpace=wrap;html=1;" parent="9jJaJCgMxhwfUNVwo0DU-108" vertex="1">
          <mxGeometry y="70" width="190" height="66" as="geometry" />
        </mxCell>
        <mxCell id="9jJaJCgMxhwfUNVwo0DU-112" value="# Edge" style="swimlane;fontStyle=1;align=center;verticalAlign=top;childLayout=stackLayout;horizontal=1;startSize=20;horizontalStack=0;resizeParent=1;resizeParentMax=0;resizeLast=0;collapsible=1;marginBottom=0;whiteSpace=wrap;html=1;" parent="9jJaJCgMxhwfUNVwo0DU-121" vertex="1">
          <mxGeometry x="560" y="740" width="190" height="190" as="geometry" />
        </mxCell>
        <mxCell id="9jJaJCgMxhwfUNVwo0DU-113" value="- vertex: VertexInterface&amp;lt;T&amp;gt;&lt;br&gt;- weight: Double" style="text;strokeColor=none;fillColor=none;align=left;verticalAlign=top;spacingLeft=4;spacingRight=4;overflow=hidden;rotatable=0;points=[[0,0.5],[1,0.5]];portConstraint=eastwest;whiteSpace=wrap;html=1;" parent="9jJaJCgMxhwfUNVwo0DU-112" vertex="1">
          <mxGeometry y="20" width="190" height="30" as="geometry" />
        </mxCell>
        <mxCell id="9jJaJCgMxhwfUNVwo0DU-114" value="" style="line;strokeWidth=1;fillColor=none;align=left;verticalAlign=middle;spacingTop=-1;spacingLeft=3;spacingRight=3;rotatable=0;labelPosition=right;points=[];portConstraint=eastwest;strokeColor=inherit;" parent="9jJaJCgMxhwfUNVwo0DU-112" vertex="1">
          <mxGeometry y="50" width="190" height="8" as="geometry" />
        </mxCell>
        <mxCell id="9jJaJCgMxhwfUNVwo0DU-115" value="# Edge(endVertex: VertexInterface&amp;lt;T&amp;gt;, edgeWeight: Double)&lt;br&gt;# Edge(endVertex: VertexInterface&amp;lt;T&amp;gt;)&lt;br&gt;# getEndVertex(): VertexInterface&amp;lt;T&amp;gt;&lt;br&gt;# getWeight(): Double" style="text;strokeColor=none;fillColor=none;align=left;verticalAlign=top;spacingLeft=4;spacingRight=4;overflow=hidden;rotatable=0;points=[[0,0.5],[1,0.5]];portConstraint=eastwest;whiteSpace=wrap;html=1;" parent="9jJaJCgMxhwfUNVwo0DU-112" vertex="1">
          <mxGeometry y="58" width="190" height="132" as="geometry" />
        </mxCell>
        <mxCell id="C9hXWPLKWbTWLrYmM0g9-1" value="ProfileManager" style="swimlane;fontStyle=1;align=center;verticalAlign=top;childLayout=stackLayout;horizontal=1;startSize=26;horizontalStack=0;resizeParent=1;resizeParentMax=0;resizeLast=0;collapsible=1;marginBottom=0;whiteSpace=wrap;html=1;" vertex="1" parent="1">
          <mxGeometry x="-790" y="1709" width="160" height="280" as="geometry" />
        </mxCell>
        <mxCell id="C9hXWPLKWbTWLrYmM0g9-2" value="- graph: UndirectedGraph&amp;lt;Profile&amp;gt;&lt;br&gt;- users: List&amp;lt;Profile&amp;gt;&lt;br&gt;- admin: Profile" style="text;strokeColor=none;fillColor=none;align=left;verticalAlign=top;spacingLeft=4;spacingRight=4;overflow=hidden;rotatable=0;points=[[0,0.5],[1,0.5]];portConstraint=eastwest;whiteSpace=wrap;html=1;" vertex="1" parent="C9hXWPLKWbTWLrYmM0g9-1">
          <mxGeometry y="26" width="160" height="64" as="geometry" />
        </mxCell>
        <mxCell id="C9hXWPLKWbTWLrYmM0g9-3" value="" style="line;strokeWidth=1;fillColor=none;align=left;verticalAlign=middle;spacingTop=-1;spacingLeft=3;spacingRight=3;rotatable=0;labelPosition=right;points=[];portConstraint=eastwest;strokeColor=inherit;" vertex="1" parent="C9hXWPLKWbTWLrYmM0g9-1">
          <mxGeometry y="90" width="160" height="8" as="geometry" />
        </mxCell>
        <mxCell id="C9hXWPLKWbTWLrYmM0g9-4" value="+ ProfileManager()&lt;br&gt;+ addUser(profile: Profile)&lt;br&gt;+ getUser(profile: Profile): Profile&lt;br&gt;+ removeUser(profile: Profile): Profile&lt;br&gt;+ displayAllProfiles()&lt;br&gt;+ addFriendship(friend1: Profile, friend2: Profile, bestie: Boolean)&lt;br&gt;+ setAdmin(profile: Profile)&lt;br&gt;+ getAdmin(): Profile" style="text;strokeColor=none;fillColor=none;align=left;verticalAlign=top;spacingLeft=4;spacingRight=4;overflow=hidden;rotatable=0;points=[[0,0.5],[1,0.5]];portConstraint=eastwest;whiteSpace=wrap;html=1;" vertex="1" parent="C9hXWPLKWbTWLrYmM0g9-1">
          <mxGeometry y="98" width="160" height="182" as="geometry" />
        </mxCell>
        <mxCell id="C9hXWPLKWbTWLrYmM0g9-25" style="edgeStyle=orthogonalEdgeStyle;rounded=0;orthogonalLoop=1;jettySize=auto;html=1;exitX=1;exitY=0.25;exitDx=0;exitDy=0;entryX=0.25;entryY=1;entryDx=0;entryDy=0;fillColor=#ffe6cc;strokeColor=#d79b00;" edge="1" parent="1" source="C9hXWPLKWbTWLrYmM0g9-6" target="C9hXWPLKWbTWLrYmM0g9-9">
          <mxGeometry relative="1" as="geometry" />
        </mxCell>
        <mxCell id="C9hXWPLKWbTWLrYmM0g9-26" style="edgeStyle=orthogonalEdgeStyle;rounded=0;orthogonalLoop=1;jettySize=auto;html=1;exitX=1;exitY=0.5;exitDx=0;exitDy=0;entryX=0.5;entryY=1;entryDx=0;entryDy=0;fillColor=#ffe6cc;strokeColor=#d79b00;" edge="1" parent="1" source="C9hXWPLKWbTWLrYmM0g9-6" target="C9hXWPLKWbTWLrYmM0g9-10">
          <mxGeometry relative="1" as="geometry">
            <Array as="points">
              <mxPoint x="-690" y="1420" />
              <mxPoint x="-320" y="1420" />
            </Array>
          </mxGeometry>
        </mxCell>
        <mxCell id="C9hXWPLKWbTWLrYmM0g9-28" style="edgeStyle=orthogonalEdgeStyle;rounded=0;orthogonalLoop=1;jettySize=auto;html=1;exitX=1;exitY=0.5;exitDx=0;exitDy=0;entryX=0.5;entryY=1;entryDx=0;entryDy=0;fillColor=#ffe6cc;strokeColor=#d79b00;" edge="1" parent="1" source="C9hXWPLKWbTWLrYmM0g9-6" target="C9hXWPLKWbTWLrYmM0g9-12">
          <mxGeometry relative="1" as="geometry">
            <Array as="points">
              <mxPoint x="-620" y="1450" />
              <mxPoint x="-620" y="1540" />
              <mxPoint x="-510" y="1540" />
            </Array>
          </mxGeometry>
        </mxCell>
        <mxCell id="C9hXWPLKWbTWLrYmM0g9-29" style="edgeStyle=orthogonalEdgeStyle;rounded=0;orthogonalLoop=1;jettySize=auto;html=1;exitX=1;exitY=0.75;exitDx=0;exitDy=0;entryX=0.25;entryY=1;entryDx=0;entryDy=0;fillColor=#ffe6cc;strokeColor=#d79b00;" edge="1" parent="1" source="C9hXWPLKWbTWLrYmM0g9-6" target="C9hXWPLKWbTWLrYmM0g9-11">
          <mxGeometry relative="1" as="geometry">
            <Array as="points">
              <mxPoint x="-690" y="1570" />
              <mxPoint x="-515" y="1570" />
              <mxPoint x="-515" y="1600" />
              <mxPoint x="-320" y="1600" />
            </Array>
          </mxGeometry>
        </mxCell>
        <mxCell id="C9hXWPLKWbTWLrYmM0g9-6" value="" style="rounded=0;whiteSpace=wrap;html=1;fillColor=#ffe6cc;strokeColor=#d79b00;" vertex="1" parent="1">
          <mxGeometry x="-730" y="1320" width="40" height="260" as="geometry" />
        </mxCell>
        <mxCell id="C9hXWPLKWbTWLrYmM0g9-7" value="List of Profiles" style="text;html=1;align=center;verticalAlign=middle;resizable=0;points=[];autosize=1;strokeColor=none;fillColor=none;" vertex="1" parent="1">
          <mxGeometry x="-750" y="1290" width="100" height="30" as="geometry" />
        </mxCell>
        <mxCell id="C9hXWPLKWbTWLrYmM0g9-8" value="Graph of Vertexes of Profiles (dict of Profiles key, Vertex&amp;lt;Profiles&amp;gt; value)" style="text;html=1;align=center;verticalAlign=middle;resizable=0;points=[];autosize=1;strokeColor=none;fillColor=none;" vertex="1" parent="1">
          <mxGeometry x="-645" y="1130" width="410" height="30" as="geometry" />
        </mxCell>
        <mxCell id="C9hXWPLKWbTWLrYmM0g9-9" value="Profile1" style="rounded=0;whiteSpace=wrap;html=1;" vertex="1" parent="1">
          <mxGeometry x="-570" y="1340" width="80" height="35" as="geometry" />
        </mxCell>
        <mxCell id="C9hXWPLKWbTWLrYmM0g9-10" value="Profile2" style="rounded=0;whiteSpace=wrap;html=1;" vertex="1" parent="1">
          <mxGeometry x="-360" y="1355" width="80" height="35" as="geometry" />
        </mxCell>
        <mxCell id="C9hXWPLKWbTWLrYmM0g9-11" value="Profile4" style="rounded=0;whiteSpace=wrap;html=1;" vertex="1" parent="1">
          <mxGeometry x="-340" y="1510" width="80" height="35" as="geometry" />
        </mxCell>
        <mxCell id="C9hXWPLKWbTWLrYmM0g9-12" value="Profile3" style="rounded=0;whiteSpace=wrap;html=1;" vertex="1" parent="1">
          <mxGeometry x="-550" y="1484" width="80" height="35" as="geometry" />
        </mxCell>
        <mxCell id="C9hXWPLKWbTWLrYmM0g9-19" value="1" style="text;html=1;align=center;verticalAlign=middle;resizable=0;points=[];autosize=1;strokeColor=none;fillColor=none;" vertex="1" parent="1">
          <mxGeometry x="-465" y="1298" width="30" height="30" as="geometry" />
        </mxCell>
        <mxCell id="C9hXWPLKWbTWLrYmM0g9-21" value="0" style="text;html=1;align=center;verticalAlign=middle;resizable=0;points=[];autosize=1;strokeColor=none;fillColor=none;" vertex="1" parent="1">
          <mxGeometry x="-245" y="1378" width="30" height="30" as="geometry" />
        </mxCell>
        <mxCell id="C9hXWPLKWbTWLrYmM0g9-22" style="edgeStyle=orthogonalEdgeStyle;rounded=0;orthogonalLoop=1;jettySize=auto;html=1;exitX=1;exitY=0.75;exitDx=0;exitDy=0;entryX=0.093;entryY=-0.072;entryDx=0;entryDy=0;entryPerimeter=0;endArrow=none;endFill=0;" edge="1" parent="1">
          <mxGeometry relative="1" as="geometry">
            <mxPoint x="-480" y="1343" as="sourcePoint" />
            <mxPoint x="-308.84000000000015" y="1468.6799999999998" as="targetPoint" />
            <Array as="points">
              <mxPoint x="-460" y="1343" />
              <mxPoint x="-460" y="1403" />
              <mxPoint x="-370" y="1403" />
              <mxPoint x="-370" y="1453" />
              <mxPoint x="-309" y="1453" />
            </Array>
          </mxGeometry>
        </mxCell>
        <mxCell id="C9hXWPLKWbTWLrYmM0g9-23" value="0" style="text;html=1;align=center;verticalAlign=middle;resizable=0;points=[];autosize=1;strokeColor=none;fillColor=none;" vertex="1" parent="1">
          <mxGeometry x="-365" y="1411" width="30" height="30" as="geometry" />
        </mxCell>
        <mxCell id="C9hXWPLKWbTWLrYmM0g9-30" style="edgeStyle=orthogonalEdgeStyle;rounded=0;orthogonalLoop=1;jettySize=auto;html=1;exitX=0.25;exitY=1;exitDx=0;exitDy=0;entryX=0.75;entryY=0;entryDx=0;entryDy=0;fillColor=#d5e8d4;strokeColor=#82b366;" edge="1" parent="1" source="C9hXWPLKWbTWLrYmM0g9-27" target="C9hXWPLKWbTWLrYmM0g9-9">
          <mxGeometry relative="1" as="geometry" />
        </mxCell>
        <mxCell id="C9hXWPLKWbTWLrYmM0g9-31" style="edgeStyle=orthogonalEdgeStyle;rounded=0;orthogonalLoop=1;jettySize=auto;html=1;exitX=0;exitY=1;exitDx=0;exitDy=0;entryX=0.5;entryY=0;entryDx=0;entryDy=0;fillColor=#d5e8d4;strokeColor=#82b366;" edge="1" parent="1" source="C9hXWPLKWbTWLrYmM0g9-27" target="C9hXWPLKWbTWLrYmM0g9-13">
          <mxGeometry relative="1" as="geometry" />
        </mxCell>
        <mxCell id="C9hXWPLKWbTWLrYmM0g9-34" style="edgeStyle=orthogonalEdgeStyle;rounded=0;orthogonalLoop=1;jettySize=auto;html=1;exitX=1;exitY=0.75;exitDx=0;exitDy=0;entryX=0;entryY=0.75;entryDx=0;entryDy=0;fillColor=#d5e8d4;strokeColor=#82b366;" edge="1" parent="1" source="C9hXWPLKWbTWLrYmM0g9-27" target="C9hXWPLKWbTWLrYmM0g9-32">
          <mxGeometry relative="1" as="geometry" />
        </mxCell>
        <mxCell id="C9hXWPLKWbTWLrYmM0g9-27" value="key&lt;br&gt;value&lt;br&gt;next" style="rounded=0;whiteSpace=wrap;html=1;fillColor=#d5e8d4;strokeColor=#82b366;" vertex="1" parent="1">
          <mxGeometry x="-465" y="1160" width="60" height="60" as="geometry" />
        </mxCell>
        <mxCell id="C9hXWPLKWbTWLrYmM0g9-36" style="edgeStyle=orthogonalEdgeStyle;rounded=0;orthogonalLoop=1;jettySize=auto;html=1;exitX=0.75;exitY=1;exitDx=0;exitDy=0;entryX=0.75;entryY=0;entryDx=0;entryDy=0;fillColor=#d5e8d4;strokeColor=#82b366;" edge="1" parent="1" source="C9hXWPLKWbTWLrYmM0g9-32" target="C9hXWPLKWbTWLrYmM0g9-10">
          <mxGeometry relative="1" as="geometry" />
        </mxCell>
        <mxCell id="C9hXWPLKWbTWLrYmM0g9-38" style="edgeStyle=orthogonalEdgeStyle;rounded=0;orthogonalLoop=1;jettySize=auto;html=1;exitX=1;exitY=0.75;exitDx=0;exitDy=0;entryX=0;entryY=0.75;entryDx=0;entryDy=0;fillColor=#d5e8d4;strokeColor=#82b366;" edge="1" parent="1" source="C9hXWPLKWbTWLrYmM0g9-32" target="C9hXWPLKWbTWLrYmM0g9-37">
          <mxGeometry relative="1" as="geometry" />
        </mxCell>
        <mxCell id="C9hXWPLKWbTWLrYmM0g9-32" value="key&lt;br&gt;value&lt;br&gt;next" style="rounded=0;whiteSpace=wrap;html=1;fillColor=#d5e8d4;strokeColor=#82b366;" vertex="1" parent="1">
          <mxGeometry x="-365" y="1160" width="60" height="60" as="geometry" />
        </mxCell>
        <mxCell id="C9hXWPLKWbTWLrYmM0g9-35" style="edgeStyle=orthogonalEdgeStyle;rounded=0;orthogonalLoop=1;jettySize=auto;html=1;exitX=0.25;exitY=1;exitDx=0;exitDy=0;entryX=0.337;entryY=-0.033;entryDx=0;entryDy=0;entryPerimeter=0;fillColor=#d5e8d4;strokeColor=#82b366;" edge="1" parent="1" source="C9hXWPLKWbTWLrYmM0g9-32" target="C9hXWPLKWbTWLrYmM0g9-14">
          <mxGeometry relative="1" as="geometry" />
        </mxCell>
        <mxCell id="C9hXWPLKWbTWLrYmM0g9-39" style="edgeStyle=orthogonalEdgeStyle;rounded=0;orthogonalLoop=1;jettySize=auto;html=1;exitX=0.5;exitY=1;exitDx=0;exitDy=0;entryX=0.5;entryY=0;entryDx=0;entryDy=0;fillColor=#d5e8d4;strokeColor=#82b366;" edge="1" parent="1" source="C9hXWPLKWbTWLrYmM0g9-37" target="C9hXWPLKWbTWLrYmM0g9-15">
          <mxGeometry relative="1" as="geometry">
            <Array as="points">
              <mxPoint x="-240" y="1430" />
              <mxPoint x="-510" y="1430" />
            </Array>
          </mxGeometry>
        </mxCell>
        <mxCell id="C9hXWPLKWbTWLrYmM0g9-41" style="edgeStyle=orthogonalEdgeStyle;rounded=0;orthogonalLoop=1;jettySize=auto;html=1;exitX=0.75;exitY=1;exitDx=0;exitDy=0;entryX=0.75;entryY=1;entryDx=0;entryDy=0;fillColor=#d5e8d4;strokeColor=#82b366;" edge="1" parent="1" source="C9hXWPLKWbTWLrYmM0g9-37" target="C9hXWPLKWbTWLrYmM0g9-12">
          <mxGeometry relative="1" as="geometry">
            <Array as="points">
              <mxPoint x="-225" y="1440" />
              <mxPoint x="-430" y="1440" />
              <mxPoint x="-430" y="1540" />
              <mxPoint x="-490" y="1540" />
            </Array>
          </mxGeometry>
        </mxCell>
        <mxCell id="C9hXWPLKWbTWLrYmM0g9-43" style="edgeStyle=orthogonalEdgeStyle;rounded=0;orthogonalLoop=1;jettySize=auto;html=1;exitX=1;exitY=0.75;exitDx=0;exitDy=0;entryX=0;entryY=0.75;entryDx=0;entryDy=0;fillColor=#d5e8d4;strokeColor=#82b366;" edge="1" parent="1" source="C9hXWPLKWbTWLrYmM0g9-37" target="C9hXWPLKWbTWLrYmM0g9-42">
          <mxGeometry relative="1" as="geometry" />
        </mxCell>
        <mxCell id="C9hXWPLKWbTWLrYmM0g9-37" value="key&lt;br&gt;value&lt;br&gt;next" style="rounded=0;whiteSpace=wrap;html=1;fillColor=#d5e8d4;strokeColor=#82b366;" vertex="1" parent="1">
          <mxGeometry x="-270" y="1160" width="60" height="60" as="geometry" />
        </mxCell>
        <mxCell id="C9hXWPLKWbTWLrYmM0g9-45" style="edgeStyle=orthogonalEdgeStyle;rounded=0;orthogonalLoop=1;jettySize=auto;html=1;exitX=0.75;exitY=1;exitDx=0;exitDy=0;entryX=0.75;entryY=1;entryDx=0;entryDy=0;fillColor=#d5e8d4;strokeColor=#82b366;" edge="1" parent="1" source="C9hXWPLKWbTWLrYmM0g9-42" target="C9hXWPLKWbTWLrYmM0g9-11">
          <mxGeometry relative="1" as="geometry" />
        </mxCell>
        <mxCell id="C9hXWPLKWbTWLrYmM0g9-42" value="key&lt;br&gt;value&lt;br&gt;next" style="rounded=0;whiteSpace=wrap;html=1;fillColor=#d5e8d4;strokeColor=#82b366;" vertex="1" parent="1">
          <mxGeometry x="-170" y="1160" width="60" height="60" as="geometry" />
        </mxCell>
        <mxCell id="C9hXWPLKWbTWLrYmM0g9-44" style="edgeStyle=orthogonalEdgeStyle;rounded=0;orthogonalLoop=1;jettySize=auto;html=1;exitX=0.25;exitY=1;exitDx=0;exitDy=0;entryX=0.895;entryY=-0.019;entryDx=0;entryDy=0;entryPerimeter=0;fillColor=#d5e8d4;strokeColor=#82b366;" edge="1" parent="1" source="C9hXWPLKWbTWLrYmM0g9-42" target="C9hXWPLKWbTWLrYmM0g9-16">
          <mxGeometry relative="1" as="geometry" />
        </mxCell>
        <mxCell id="C9hXWPLKWbTWLrYmM0g9-46" value="Removal must&lt;br&gt;remove the reference&lt;br&gt;from users list,&lt;br&gt;graph dictionary&lt;br&gt;of vertices,&lt;br&gt;and friend list in the&lt;br&gt;vertex for the profile" style="text;html=1;align=center;verticalAlign=middle;resizable=0;points=[];autosize=1;strokeColor=none;fillColor=none;" vertex="1" parent="1">
          <mxGeometry x="-930" y="1308" width="140" height="110" as="geometry" />
        </mxCell>
        <mxCell id="C9hXWPLKWbTWLrYmM0g9-47" value="When we add a friendship&lt;br&gt;Is that added to the Profile&lt;br&gt;or to the Graph (Vertex&amp;lt;Profile&amp;gt;)?" style="text;html=1;align=center;verticalAlign=middle;resizable=0;points=[];autosize=1;strokeColor=none;fillColor=none;" vertex="1" parent="1">
          <mxGeometry x="-1020" y="1523" width="200" height="60" as="geometry" />
        </mxCell>
      </root>
    </mxGraphModel>
  </diagram>
</mxfile>
